<?xml version="1.0" encoding="UTF-8" standalone="no"?>
<!-- Created with Inkscape (http://www.inkscape.org/) -->

<svg
   xmlns:dc="http://purl.org/dc/elements/1.1/"
   xmlns:cc="http://creativecommons.org/ns#"
   xmlns:rdf="http://www.w3.org/1999/02/22-rdf-syntax-ns#"
   xmlns:svg="http://www.w3.org/2000/svg"
   xmlns="http://www.w3.org/2000/svg"
   xmlns:sodipodi="http://sodipodi.sourceforge.net/DTD/sodipodi-0.dtd"
   xmlns:inkscape="http://www.inkscape.org/namespaces/inkscape"
   width="849.15845"
   height="196.73045"
   viewBox="0 0 849.15846 196.73046"
   id="svg3336"
   version="1.1"
   inkscape:version="0.92.2 5c3e80d, 2017-08-06"
   sodipodi:docname="Studio350Logo.svg">
  <defs
     id="defs3338" />
  <sodipodi:namedview
     id="base"
     pagecolor="#ffffff"
     bordercolor="#666666"
     borderopacity="1.0"
     inkscape:pageopacity="0.0"
     inkscape:pageshadow="2"
     inkscape:zoom="1.079109"
     inkscape:cx="447.51812"
     inkscape:cy="91.27985"
     inkscape:document-units="px"
     inkscape:current-layer="text4175"
     showgrid="false"
     inkscape:window-width="1680"
     inkscape:window-height="1005"
     inkscape:window-x="0"
     inkscape:window-y="1"
     inkscape:window-maximized="1"
     units="px"
     showguides="false"
     inkscape:snap-page="false"
     fit-margin-top="0"
     fit-margin-left="0"
     fit-margin-right="0"
     fit-margin-bottom="0" />
  <metadata
     id="metadata3341">
    <rdf:RDF>
      <cc:Work
         rdf:about="">
        <dc:format>image/svg+xml</dc:format>
        <dc:type
           rdf:resource="http://purl.org/dc/dcmitype/StillImage" />
        <dc:title></dc:title>
      </cc:Work>
    </rdf:RDF>
  </metadata>
  <g
     inkscape:label="Layer 1"
     inkscape:groupmode="layer"
     id="layer1"
     transform="translate(-164.49916,-277.539)">
    <g
       style="font-style:normal;font-weight:normal;font-size:40px;line-height:125%;font-family:sans-serif;letter-spacing:0px;word-spacing:0px;fill:#1068b0;fill-opacity:1;stroke:none;stroke-width:1px;stroke-linecap:butt;stroke-linejoin:miter;stroke-opacity:1"
       id="text4175">
      <path
         d="m 190.41916,383.559 q 0,15.66 13.32,15.66 14.58,0 19.62,-10.08 1.8,-3.6 1.8,-9.18 0,-5.76 -2.7,-10.62 -4.5,-7.74 -15.48,-17.1 -18.18,-15.48 -18.18,-32.04 0,-16.74 10.44,-25.74 10.44,-9 23.94,-9 13.5,0 21.42,6.84 7.92,6.84 7.92,20.52 0,9 -6.12,15.66 -5.94,6.66 -15.84,8.28 4.5,3.78 9,7.74 4.32,3.96 7.92,8.64 7.92,10.62 7.92,25.38 0,10.26 -4.86,18.54 -4.68,8.28 -12.42,14.04 -7.56,5.58 -17.1,8.64 -9.54,3.06 -17.82,3.06 -17.64,0 -27.36,-8.1 -11.34,-9.18 -11.34,-26.46 0,-11.34 7.38,-21.96 7.38,-10.62 15.66,-10.62 6.48,0 6.48,3.96 0,5.76 -1.8,11.52 -1.8,5.58 -1.8,12.42 z m 34.92,-51.12 q 10.26,-10.26 10.26,-21.42 0,-3.42 -3.6,-5.76 -3.96,-2.16 -8.28,-2.16 -9.72,0 -14.04,6.3 2.16,7.74 6.3,13.14 4.32,5.4 9.36,9.9 z"
         style="font-style:normal;font-variant:normal;font-weight:normal;font-stretch:normal;font-size:180px;font-family:'Leckerli One';-inkscape-font-specification:'Leckerli One';fill:#ffffff;fill-opacity:1"
         id="path5800"
         inkscape:connector-curvature="0" />
      <path
         d="m 275.97541,411.819 q -1.98,-4.86 -2.88,-11.16 -0.9,-6.48 -0.9,-18 0,-11.52 4.32,-31.14 h -8.1 q -2.16,0 -2.16,-1.8 0,-4.32 0.72,-7.02 0.9,-2.88 3.96,-6.48 h 4.32 q 2.52,0 5.4,-0.18 8.64,-27.72 17.64,-27.72 7.2,0.18 10.08,9.18 0.72,2.52 1.62,5.4 l -7.38,12.96 q 12.6,0.36 15.84,0.36 3.42,0 3.6,0.72 0.36,0.54 0.36,1.8 0,3.24 -1.62,8.1 -1.44,4.86 -3.42,4.68 l -18,-0.9 q -3.78,21.96 -3.78,36.36 0,14.4 4.14,14.4 3.42,0 12.42,-5.58 9,-5.76 12.96,-10.98 3.96,-5.22 6.48,-5.22 2.52,0 2.52,6.12 0,6.12 -4.32,12.6 -4.32,6.3 -10.98,11.7 -6.48,5.22 -14.58,8.64 -7.92,3.42 -13.86,3.42 -5.94,0 -9.18,-2.7 -3.06,-2.88 -5.22,-7.56 z"
         style="font-style:normal;font-variant:normal;font-weight:normal;font-stretch:normal;font-size:180px;font-family:'Leckerli One';-inkscape-font-specification:'Leckerli One';fill:#ffffff;fill-opacity:1"
         id="path5802"
         inkscape:connector-curvature="0" />
      <path
         d="m 380.98854,345.579 q 0,-12.06 18.72,-12.06 4.68,0 5.76,3.06 1.26,3.06 1.26,9.36 0,8.82 -3.96,27.36 -3.96,18.54 -3.78,25.02 0,3.06 1.98,3.06 2.7,0 6.66,-3.42 3.96,-3.42 7.92,-7.38 3.96,-4.14 7.2,-7.56 3.42,-3.42 4.68,-3.42 2.52,0 2.52,6.12 0,12.6 -12.42,24.3 -20.88,12.24 -26.46,12.24 -0.54,0 -0.9,-0.18 -6.84,0 -9.72,-4.5 -2.7,-4.5 -3.42,-11.34 -3.6,6.66 -9.9,11.52 -6.3,4.68 -14.4,4.68 -14.22,0 -21.96,-5.4 -7.56,-5.4 -7.56,-16.02 0,-4.68 1.26,-8.64 1.44,-3.96 4.5,-9.72 l 5.22,-44.28 q 5.58,-4.32 16.02,-4.32 8.28,0 9.36,10.8 0.9,8.82 -0.9,15.84 -1.62,6.84 -4.5,17.46 -2.88,10.44 -2.88,18.54 0,6.48 8.1,6.48 8.82,0 15.3,-15.48 5.04,-11.88 6.84,-26.46 -0.18,-1.44 -0.36,-3.6 0,-2.34 -0.18,-4.5 0,-2.16 0,-4.32 z"
         style="font-style:normal;font-variant:normal;font-weight:normal;font-stretch:normal;font-size:180px;font-family:'Leckerli One';-inkscape-font-specification:'Leckerli One';fill:#ffffff;fill-opacity:1"
         id="path5804"
         inkscape:connector-curvature="0" />
      <path
         d="m 531.5051,379.059 q 3.24,0 3.24,8.28 0,4.5 -3.78,10.98 -3.78,6.3 -9.9,11.7 -5.94,5.22 -13.32,8.64 -7.38,3.42 -14.4,3.42 -9.9,0 -12.96,-16.2 -10.8,17.1 -32.04,17.1 -12.96,0 -20.7,-7.92 -7.74,-7.92 -7.56,-19.26 0,-30.6 20.34,-48.24 14.04,-12.06 29.16,-12.06 6.84,0 10.8,1.08 l 4.14,1.08 q 7.38,-34.74 17.1,-46.44 3.24,-3.96 6.48,-3.96 5.22,0 9.72,7.2 3.96,5.94 3.96,10.26 0,4.32 -1.26,8.46 -1.26,4.14 -3.24,7.74 -1.8,3.42 -4.14,6.84 -2.34,3.24 -4.68,6.66 -5.22,19.44 -7.74,43.56 -0.72,6.84 -0.72,10.98 0,12.42 4.14,12.42 4.68,0 22.68,-18.72 3.24,-3.6 4.68,-3.6 z m -84.96,10.8 q 0,13.86 10.26,13.86 6.12,0 12.24,-4.68 6.3,-4.68 9.72,-15.66 0.36,-16.2 3.78,-35.64 -14.4,2.88 -25.2,14.04 -10.8,11.16 -10.8,28.08 z"
         style="font-style:normal;font-variant:normal;font-weight:normal;font-stretch:normal;font-size:180px;font-family:'Leckerli One';-inkscape-font-specification:'Leckerli One';fill:#ffffff;fill-opacity:1"
         id="path5806"
         inkscape:connector-curvature="0" />
      <path
         d="m 547.35072,422.079 q -18,0 -18,-33.66 0,-18.36 4.5,-33.3 7.02,-23.04 15.84,-23.04 5.22,0 8.28,7.02 2.52,5.4 2.34,10.62 0,7.2 -4.32,25.38 -4.14,15.84 -4.14,19.62 0,3.78 1.8,5.22 1.98,1.44 4.5,1.44 2.7,0 6.66,-3.42 3.96,-3.42 7.92,-7.38 3.96,-4.14 7.2,-7.56 3.42,-3.42 4.68,-3.42 2.52,0 2.52,6.12 0,12.6 -12.78,24.66 -12.6,11.88 -27,11.7 z m 7.38,-104.58 q -4.86,-7.2 -4.86,-15.48 0,-8.28 2.52,-13.68 2.7,-5.58 5.04,-8.1 2.34,-2.7 5.4,-2.7 5.04,0 9.18,7.56 4.14,7.38 4.14,12.42 0,9.36 -6.66,14.76 -6.48,5.22 -14.76,5.22 z"
         style="font-style:normal;font-variant:normal;font-weight:normal;font-stretch:normal;font-size:180px;font-family:'Leckerli One';-inkscape-font-specification:'Leckerli One';fill:#ffffff;fill-opacity:1"
         id="path5808"
         inkscape:connector-curvature="0" />
      <path
         d="m 651.2051,406.239 q -14.22,16.74 -34.2,16.74 -19.8,0 -29.7,-10.08 -9.9,-10.26 -9.72,-25.38 -0.18,-21.42 13.5,-36.9 13.68,-15.48 35.82,-15.48 10.08,0 16.2,2.52 10.62,4.32 10.62,8.1 0,2.88 -14.94,3.06 -14.76,0 -24.84,10.26 -9.9,10.08 -9.9,25.56 0,8.1 4.68,13.68 4.86,5.4 13.5,5.4 8.82,0 14.58,-3.6 -12.78,-8.64 -12.78,-25.02 -0.18,-8.64 6.12,-15.66 6.48,-7.2 16.38,-7.2 10.08,-0.18 14.4,5.4 4.32,5.58 4.32,14.4 0,8.64 -4.14,18.36 h 1.08 q 7.92,-0.18 13.68,-5.58 2.16,-2.16 3.6,-3.78 1.62,-1.62 3.24,-1.62 2.52,0 2.52,5.94 0,10.98 -6.48,16.56 -6.48,5.4 -14.4,5.4 -7.74,0 -13.14,-1.08 z m -1.62,-20.88 q 3.06,-6.48 3.06,-12.6 0,-6.12 -3.96,-6.12 -1.62,0 -2.7,2.34 -1.08,2.34 -1.08,4.5 0,7.2 4.68,11.88 z"
         style="font-style:normal;font-variant:normal;font-weight:normal;font-stretch:normal;font-size:180px;font-family:'Leckerli One';-inkscape-font-specification:'Leckerli One';fill:#ffffff;fill-opacity:1"
         id="path5810"
         inkscape:connector-curvature="0" />
      <path
         d="m 722.11947,358.359 q -18,0 -17.64,-8.82 0,-8.28 16.74,-8.28 2.34,0 6.48,1.08 7.56,-9.36 7.56,-21.78 0,-8.28 -4.5,-12.78 -4.5,-4.5 -11.7,-4.5 -7.02,0 -11.16,1.26 -7.56,2.16 -12.06,7.2 -7.02,8.64 -11.34,8.64 -2.34,0 -2.34,-3.78 0,-3.78 2.7,-9.36 2.88,-5.58 7.92,-10.26 11.88,-11.16 30.6,-10.98 18.72,0 29.34,8.28 10.8,8.28 10.8,24.12 0,8.82 -4.68,17.46 -4.68,8.46 -12.78,14.4 20.52,13.14 20.52,35.64 0,18.36 -17.64,29.88 -15.12,9.72 -33.84,9.72 -18.72,0 -31.68,-9.72 -5.58,-4.32 -8.64,-9.36 -3.06,-5.04 -3.06,-8.82 0,-3.96 3.6,-3.96 3.6,0 7.02,2.34 3.6,2.16 7.56,5.04 10.08,7.2 18.36,7.2 14.4,0 21.42,-7.74 7.02,-7.92 7.02,-16.74 0,-15.12 -7.56,-26.1 -3.42,0.72 -7.02,0.72 z"
         style="font-style:normal;font-variant:normal;font-weight:normal;font-stretch:normal;font-size:180px;font-family:'Leckerli One';-inkscape-font-specification:'Leckerli One';fill:#ffffff;fill-opacity:1"
         id="path5812"
         inkscape:connector-curvature="0" />
      <path
         d="m 809.54604,359.439 q -7.92,-2.52 -9.54,-7.92 1.8,-15.66 7.56,-34.56 1.8,-6.12 4.32,-11.34 -5.76,0.54 -8.82,0.54 -3.06,0 -3.06,-1.8 0,-3.24 3.6,-6.84 3.6,-3.78 10.08,-7.02 14.76,-7.2 36,-7.02 l 36.36,0.54 q 2.88,0 2.88,3.42 0,1.08 -0.9,3.78 -0.9,2.7 -1.62,5.58 -1.44,5.94 -6.12,5.94 l -27.36,-1.26 q -7.92,0 -22.32,1.8 -1.8,7.56 -4.5,16.56 -2.7,9 -5.58,20.34 3.96,-0.72 10.98,-0.72 7.2,0 15.66,2.34 8.64,2.16 15.12,7.2 14.22,10.98 14.22,32.76 0,21.6 -14.76,32.76 -14.76,10.98 -38.7,10.98 -16.74,0 -29.7,-9.72 -5.58,-4.32 -8.64,-9.36 -3.06,-5.04 -3.06,-8.82 0,-3.96 3.6,-3.96 3.6,0 7.02,2.34 3.42,2.16 7.38,5.04 10.08,7.2 19.44,7.2 14.04,0 20.7,-6.84 6.84,-6.84 6.84,-17.46 0,-27.36 -23.76,-27.36 l -6.66,0.18 q -1.98,2.7 -6.66,2.7 z"
         style="font-style:normal;font-variant:normal;font-weight:normal;font-stretch:normal;font-size:180px;font-family:'Leckerli One';-inkscape-font-specification:'Leckerli One';fill:#ffffff;fill-opacity:1"
         id="path5814"
         inkscape:connector-curvature="0" />
      <path
         d="m 998.3576,304.539 q 0,1.98 -4.5,1.98 -4.5,0 -7.38,-0.54 -2.7,-0.54 -9,-1.62 -6.3,-1.08 -14.22,-1.08 -7.74,0 -14.58,5.4 -6.66,5.22 -11.34,13.5 -9.36,16.74 -9.18,38.7 0.18,18.72 8.1,28.44 7.92,9.54 19.98,9.54 7.2,0 14.58,-3.6 7.56,-3.6 13.68,-10.44 13.68,-15.48 13.5,-38.7 0.18,-14.58 -8.82,-22.86 -3.24,-3.24 -6.12,-5.4 -2.88,-2.16 -2.88,-5.58 0,-1.98 3.96,-1.98 10.08,0 18.36,7.56 11.16,10.26 11.16,29.52 0,36 -18.54,55.8 -18.54,19.62 -46.26,19.62 -20.88,0 -34.2,-13.5 -14.76,-15.12 -14.76,-41.58 0,-19.26 7.92,-37.62 12.96,-30.6 38.52,-40.68 9,-3.6 18.36,-3.6 16.38,0.18 25.02,6.12 8.82,5.76 8.64,12.6 z"
         style="font-style:normal;font-variant:normal;font-weight:normal;font-stretch:normal;font-size:180px;font-family:'Leckerli One';-inkscape-font-specification:'Leckerli One';fill:#ffffff;fill-opacity:1"
         id="path5816"
         inkscape:connector-curvature="0" />
      <path
         inkscape:connector-curvature="0"
         id="path873"
         style="font-style:normal;font-variant:normal;font-weight:normal;font-stretch:normal;font-size:33.96522141px;line-height:125%;font-family:'Leckerli One';-inkscape-font-specification:'Leckerli One';letter-spacing:0px;word-spacing:0px;fill:#ffffff;fill-opacity:1;stroke:none;stroke-width:1.06141317px;stroke-linecap:butt;stroke-linejoin:miter;stroke-opacity:1"
         d="m 642.63663,456.94719 q 0.57741,0 0.57741,1.5624 0,0.84913 -0.71327,2.07188 -0.71327,1.18878 -1.86809,2.20774 -1.12085,0.98499 -2.51343,1.63033 -1.39257,0.64534 -2.71721,0.64534 -2.00395,0 -2.78515,-0.98499 -0.74724,-1.01896 -0.74724,-2.95498 0,-1.96998 1.52844,-6.72511 -4.6872,-0.20379 -6.82701,-0.20379 h -0.47551 q -0.61138,3.77014 -0.61138,7.91389 0,1.83413 -1.39257,2.51343 -0.64534,0.30569 -1.25672,0.57741 -0.5774,0.27172 -1.25671,0.27172 -1.69826,0 -1.69826,-3.05687 0,-3.05687 1.39257,-7.84597 -1.49446,0.16983 -2.64928,0.33966 -1.12085,0.16982 -1.76619,0.16982 -0.64534,0 -0.64534,-0.33965 0,-1.01896 1.66429,-2.07188 1.69826,-1.05292 4.58531,-1.59636 3.19273,-8.11769 7.812,-10.83491 1.69826,-1.01896 3.60031,-1.01896 3.39652,0.034 4.89099,1.83413 1.52844,1.80015 1.52844,4.78909 0.034,2.95498 -1.80016,7.71011 -0.6793,1.83412 -1.25671,3.32859 -0.57741,1.49447 -0.57741,2.41153 0,0.91706 0.13586,1.39257 0.13586,0.47552 0.64534,0.47552 0.91706,0 4.31358,-3.53239 0.61138,-0.6793 0.8831,-0.6793 z m -7.23459,-10.12164 q 0,-2.95497 -2.20774,-2.95497 -2.24171,0 -3.87204,1.90205 -1.59636,1.86809 -2.47946,5.02685 l 7.71011,0.1019 q 0.84913,-2.71722 0.84913,-4.07583 z" />
      <path
         inkscape:connector-curvature="0"
         id="path875"
         style="font-style:normal;font-variant:normal;font-weight:normal;font-stretch:normal;font-size:33.96522141px;line-height:125%;font-family:'Leckerli One';-inkscape-font-specification:'Leckerli One';letter-spacing:0px;word-spacing:0px;fill:#ffffff;fill-opacity:1;stroke:none;stroke-width:1.06141317px;stroke-linecap:butt;stroke-linejoin:miter;stroke-opacity:1"
         d="m 672.17629,459.46062 q 0.8831,-0.64534 1.59637,-1.5624 0.71327,-0.95103 1.18878,-0.95103 0.50948,0 0.50948,1.49447 0,1.4605 -0.84913,2.78515 -0.81517,1.29068 -2.17378,2.17377 -2.78515,1.83412 -6.58925,1.83412 -4.61927,0 -7.16666,-2.30963 -2.54739,-2.30964 -2.54739,-6.41943 0,-5.06082 2.44549,-9.61216 0.81517,-1.49447 1.83412,-2.75118 -0.7812,-0.91706 -1.25671,-1.90205 -0.44155,-1.01896 -0.44155,-1.52844 0,-0.91706 0.67931,-0.91706 0.47551,0.034 1.08688,0.64534 l 1.05293,1.01896 q 0.40758,0.40758 0.84913,0.6793 3.36255,-2.85308 7.23459,-2.85308 3.906,0 5.06082,2.17378 0.40758,0.81516 0.40758,2.00395 0,1.80015 -1.5624,3.0229 -1.5624,1.22275 -4.21169,1.22275 -2.61532,0 -5.43443,-1.08689 -2.41153,4.10979 -2.41153,8.5932 0,6.21564 4.95892,6.21564 3.05687,0 5.74012,-1.96998 z m -6.65718,-14.9447 q 1.73222,0.57741 3.77014,0.57741 2.03791,0 2.03791,-1.12085 0,-1.32465 -1.6643,-1.32465 -2.27567,0 -4.14375,1.86809 z" />
      <path
         inkscape:connector-curvature="0"
         id="path877"
         style="font-style:normal;font-variant:normal;font-weight:normal;font-stretch:normal;font-size:33.96522141px;line-height:125%;font-family:'Leckerli One';-inkscape-font-specification:'Leckerli One';letter-spacing:0px;word-spacing:0px;fill:#ffffff;fill-opacity:1;stroke:none;stroke-width:1.06141317px;stroke-linecap:butt;stroke-linejoin:miter;stroke-opacity:1"
         d="m 678.72574,459.25682 0.20379,4.14376 q 0,0.81517 -0.84913,1.46051 -0.84913,0.64534 -2.30964,0.64534 -0.84913,0 -1.18878,-0.8831 -0.30569,-0.8831 -0.30569,-2.58136 0,-3.56635 0.33966,-5.57029 0.37361,-2.03792 1.42654,-4.10979 -1.5624,-1.49447 -1.5624,-2.58136 0,-2.27567 2.44549,-2.27567 1.25672,0 2.20774,1.32464 0.67931,0.91706 0.98499,2.13981 0.47552,0.16983 1.18879,0.16983 0.98499,0 2.27567,-0.64534 l 0.88309,-0.44155 q 0.40758,-0.20379 0.71327,-0.20379 0.98499,0 1.96998,2.88704 -0.30568,1.32465 -0.6793,2.54739 -0.33965,1.22275 -0.81517,2.95498 -0.47551,1.73222 -0.50947,2.3436 0,0.57741 0.37361,0.57741 0.50948,0 1.25672,-0.64534 0.74723,-0.64534 1.49447,-1.39258 0.74723,-0.7812 1.3586,-1.42654 0.64534,-0.64533 0.8831,-0.64533 0.47551,0 0.47551,1.15481 0,2.3436 -2.07187,4.61927 -2.03792,2.27567 -4.68721,2.24171 -1.5624,0 -2.3436,-1.25672 -0.7812,-1.25671 -0.81516,-3.05687 0,-3.56634 1.59636,-6.75907 -0.74723,0.30568 -1.69826,0.30568 -0.91706,0 -1.32464,-0.0679 -0.30569,1.29068 -0.61137,2.61532 -0.30569,1.29068 -0.30569,2.41153 z" />
      <path
         inkscape:connector-curvature="0"
         id="path879"
         style="font-style:normal;font-variant:normal;font-weight:normal;font-stretch:normal;font-size:33.96522141px;line-height:125%;font-family:'Leckerli One';-inkscape-font-specification:'Leckerli One';letter-spacing:0px;word-spacing:0px;fill:#ffffff;fill-opacity:1;stroke:none;stroke-width:1.06141317px;stroke-linecap:butt;stroke-linejoin:miter;stroke-opacity:1"
         d="m 697.20388,461.26077 q 2.64929,0 5.12875,-2.10584 0.91706,-0.7812 1.49447,-1.42654 0.57741,-0.6793 0.88309,-0.6793 0.47552,0 0.47552,0.95102 0,0.95103 -0.50948,2.13981 -0.50948,1.15482 -1.69826,2.27567 -2.92101,2.75118 -8.01579,2.75118 -4.04187,0 -5.50237,-2.92101 -0.50948,-1.01895 -0.50948,-2.921 0,-1.90206 0.74724,-3.93997 0.74723,-2.07188 1.96998,-3.56635 1.25671,-1.49447 2.88704,-2.30963 1.63033,-0.84913 3.46446,-0.84913 1.86808,0 2.85307,0.91706 1.01896,0.91706 1.01896,2.37756 0,1.46051 -0.74723,2.41153 -0.71327,0.91706 -1.86809,1.5624 -1.15482,0.61138 -2.58136,1.12086 -1.39257,0.47551 -2.75118,1.08688 v 0.84913 q 0.034,1.22275 1.01896,1.73223 0.98499,0.50948 2.2417,0.54344 z m -0.57741,-9.57819 q -1.76619,0 -2.44549,4.10979 0.71326,-0.47551 1.32464,-0.84913 0.64534,-0.37362 1.12085,-0.71327 1.01896,-0.74723 1.05292,-1.69826 0,-0.84913 -1.05292,-0.84913 z" />
      <path
         inkscape:connector-curvature="0"
         id="path881"
         style="font-style:normal;font-variant:normal;font-weight:normal;font-stretch:normal;font-size:33.96522141px;line-height:125%;font-family:'Leckerli One';-inkscape-font-specification:'Leckerli One';letter-spacing:0px;word-spacing:0px;fill:#ffffff;fill-opacity:1;stroke:none;stroke-width:1.06141317px;stroke-linecap:butt;stroke-linejoin:miter;stroke-opacity:1"
         d="m 724.34103,456.94719 q 0.61138,0 0.61138,1.5624 0,0.84913 -0.71327,2.07188 -0.71327,1.18878 -1.86809,2.20774 -1.12085,0.98499 -2.51343,1.63033 -1.39257,0.64534 -2.71721,0.64534 -1.80016,0 -2.41153,-3.15877 -0.8831,1.46051 -2.30964,2.41153 -1.42654,0.91706 -3.83807,0.91706 -2.37757,0 -3.83807,-1.49447 -1.4605,-1.49447 -1.42654,-3.63427 0,-5.77409 3.83807,-9.10268 1.63033,-1.39258 3.02291,-1.83413 1.42653,-0.44154 2.98893,-0.44154 1.56241,0 2.5474,0.54344 0.47551,-0.98499 1.08688,-0.98499 1.18879,0 2.24171,1.05292 1.08689,1.01896 1.08689,1.93602 -0.47552,1.12085 -1.39258,2.68325 -0.27172,1.5624 -0.27172,4.38151 0,2.81912 0.71327,2.81912 0.88309,0 4.27962,-3.53239 0.61137,-0.6793 0.88309,-0.6793 z m -16.03158,2.03791 q 0,2.61533 1.93602,2.61533 2.07187,-0.034 3.43048,-2.20774 0.47552,-0.74724 0.7812,-1.83413 0,-3.8041 0.67931,-6.52132 -2.75119,0.54344 -4.7891,2.64929 -2.03791,2.10584 -2.03791,5.29857 z" />
      <path
         inkscape:connector-curvature="0"
         id="path883"
         style="font-style:normal;font-variant:normal;font-weight:normal;font-stretch:normal;font-size:33.96522141px;line-height:125%;font-family:'Leckerli One';-inkscape-font-specification:'Leckerli One';letter-spacing:0px;word-spacing:0px;fill:#ffffff;fill-opacity:1;stroke:none;stroke-width:1.06141317px;stroke-linecap:butt;stroke-linejoin:miter;stroke-opacity:1"
         d="m 724.74968,463.12886 q -0.37362,-0.91706 -0.54345,-2.10584 -0.16982,-1.22275 -0.16982,-3.39653 0,-2.17377 0.81516,-5.87598 h -1.52843 q -0.40758,0 -0.40758,-0.33965 0,-0.81517 0.13586,-1.32464 0.16982,-0.54345 0.74723,-1.22275 h 0.81517 q 0.47551,0 1.01895,-0.034 1.63033,-5.23064 3.3286,-5.23064 1.3586,0.034 1.90205,1.73222 0.13586,0.47552 0.30569,1.01896 l -1.39258,2.4455 q 2.37757,0.0679 2.98894,0.0679 0.64534,0 0.6793,0.13586 0.0679,0.10189 0.0679,0.33965 0,0.61137 -0.30569,1.52844 -0.27172,0.91706 -0.64534,0.88309 l -3.39652,-0.16983 q -0.71327,4.14376 -0.71327,6.86098 0,2.71722 0.7812,2.71722 0.64534,0 2.3436,-1.05292 1.69826,-1.08689 2.44549,-2.07188 0.74724,-0.98499 1.22275,-0.98499 0.47551,0 0.47551,1.15481 0,1.15482 -0.81516,2.37757 -0.81517,1.18878 -2.07188,2.20774 -1.22275,0.98499 -2.75118,1.63033 -1.49447,0.64534 -2.61532,0.64534 -1.12086,0 -1.73223,-0.50948 -0.57741,-0.54344 -0.98499,-1.42654 z" />
      <path
         inkscape:connector-curvature="0"
         id="path885"
         style="font-style:normal;font-variant:normal;font-weight:normal;font-stretch:normal;font-size:33.96522141px;line-height:125%;font-family:'Leckerli One';-inkscape-font-specification:'Leckerli One';letter-spacing:0px;word-spacing:0px;fill:#ffffff;fill-opacity:1;stroke:none;stroke-width:1.06141317px;stroke-linecap:butt;stroke-linejoin:miter;stroke-opacity:1"
         d="m 738.07784,465.06488 q -3.39652,0 -3.39652,-6.3515 0,-3.46445 0.84913,-6.28356 1.32464,-4.34755 2.98894,-4.34755 0.98499,0 1.5624,1.32464 0.47551,1.01896 0.44154,2.00395 0,1.35861 -0.81516,4.7891 -0.7812,2.98893 -0.7812,3.7022 0,0.71327 0.33965,0.985 0.37362,0.27172 0.84913,0.27172 0.50948,0 1.25671,-0.64534 0.74724,-0.64534 1.49447,-1.39258 0.74724,-0.7812 1.35861,-1.42654 0.64534,-0.64533 0.8831,-0.64533 0.47551,0 0.47551,1.15481 0,2.37757 -2.41153,4.65324 -2.37756,2.2417 -5.09478,2.20774 z m 1.39257,-19.7338 q -0.91706,-1.3586 -0.91706,-2.921 0,-1.56241 0.47551,-2.58136 0.50948,-1.05292 0.95103,-1.52844 0.44155,-0.50947 1.01896,-0.50947 0.95102,0 1.73222,1.42653 0.7812,1.39258 0.7812,2.3436 0,1.7662 -1.25671,2.78515 -1.22275,0.98499 -2.78515,0.98499 z" />
      <path
         inkscape:connector-curvature="0"
         id="path887"
         style="font-style:normal;font-variant:normal;font-weight:normal;font-stretch:normal;font-size:33.96522141px;line-height:125%;font-family:'Leckerli One';-inkscape-font-specification:'Leckerli One';letter-spacing:0px;word-spacing:0px;fill:#ffffff;fill-opacity:1;stroke:none;stroke-width:1.06141317px;stroke-linecap:butt;stroke-linejoin:miter;stroke-opacity:1"
         d="m 749.25293,450.01828 q 0,2.27567 -0.81516,5.16272 0.0679,1.08689 0.0679,2.10584 0,1.01896 0.13586,1.76619 0.50948,1.35861 1.29068,1.6643 0.6793,0 1.49447,-1.15482 0.81516,-1.18878 1.66429,-2.81911 -0.40758,-1.5624 -0.40758,-2.95498 0,-2.44549 0.74723,-3.56634 0.91706,-1.42654 2.78515,-1.42654 1.86809,0 2.47946,1.42654 0.23776,0.54344 0.23776,1.22274 0,1.22275 -0.61137,2.51343 -0.61138,1.25671 -1.96999,3.32859 0.61138,1.80016 1.83412,1.80016 1.49447,-0.034 2.58136,-1.05292 0.40758,-0.40759 0.67931,-0.71327 0.30568,-0.30569 0.61137,-0.30569 0.47551,0 0.47551,1.12085 0,2.10585 -1.22274,3.09084 -1.18879,0.95102 -3.02291,0.95102 -2.41153,0 -3.83807,-2.10584 -3.97393,5.16271 -6.65718,5.16271 -1.05292,0 -2.07188,-2.98894 -1.01896,-2.98894 -1.5624,-8.08372 -0.40758,-3.22669 0.47551,-4.61927 0.74724,-1.08689 2.92101,-1.08689 0.81517,0 1.25671,0.50948 0.44155,0.47552 0.44155,1.05292 z" />
      <path
         inkscape:connector-curvature="0"
         id="path889"
         style="font-style:normal;font-variant:normal;font-weight:normal;font-stretch:normal;font-size:33.96522141px;line-height:125%;font-family:'Leckerli One';-inkscape-font-specification:'Leckerli One';letter-spacing:0px;word-spacing:0px;fill:#ffffff;fill-opacity:1;stroke:none;stroke-width:1.06141317px;stroke-linecap:butt;stroke-linejoin:miter;stroke-opacity:1"
         d="m 768.91561,461.26077 q 2.64929,0 5.12875,-2.10584 0.91706,-0.7812 1.49447,-1.42654 0.57741,-0.6793 0.88309,-0.6793 0.47552,0 0.47552,0.95102 0,0.95103 -0.50948,2.13981 -0.50948,1.15482 -1.69826,2.27567 -2.92101,2.75118 -8.01579,2.75118 -4.04187,0 -5.50237,-2.92101 -0.50948,-1.01895 -0.50948,-2.921 0,-1.90206 0.74724,-3.93997 0.74723,-2.07188 1.96998,-3.56635 1.25671,-1.49447 2.88704,-2.30963 1.63033,-0.84913 3.46446,-0.84913 1.86808,0 2.85307,0.91706 1.01896,0.91706 1.01896,2.37756 0,1.46051 -0.74723,2.41153 -0.71327,0.91706 -1.86809,1.5624 -1.15482,0.61138 -2.58136,1.12086 -1.39257,0.47551 -2.75118,1.08688 v 0.84913 q 0.034,1.22275 1.01896,1.73223 0.98499,0.50948 2.2417,0.54344 z m -0.57741,-9.57819 q -1.76619,0 -2.44549,4.10979 0.71327,-0.47551 1.32464,-0.84913 0.64534,-0.37362 1.12085,-0.71327 1.01896,-0.74723 1.05292,-1.69826 0,-0.84913 -1.05292,-0.84913 z" />
      <path
         inkscape:connector-curvature="0"
         id="path891"
         style="font-style:normal;font-variant:normal;font-weight:normal;font-stretch:normal;font-size:33.96522141px;line-height:125%;font-family:'Leckerli One';-inkscape-font-specification:'Leckerli One';letter-spacing:0px;word-spacing:0px;fill:#ffffff;fill-opacity:1;stroke:none;stroke-width:1.06141317px;stroke-linecap:butt;stroke-linejoin:miter;stroke-opacity:1"
         d="m 809.65212,456.94719 q 0.61138,0 0.61138,1.5624 0,0.84913 -0.71327,2.07188 -0.71327,1.18878 -1.86809,2.20774 -1.12085,0.98499 -2.51343,1.63033 -1.39257,0.64534 -2.71722,0.64534 -1.86808,0 -2.44549,-3.05687 -2.03791,3.22669 -6.04581,3.22669 -2.4455,0 -3.906,-1.49447 -1.46051,-1.49447 -1.42654,-3.63427 0,-5.77409 3.83807,-9.10268 2.64929,-2.27567 5.50237,-2.27567 1.29067,0 2.03791,0.20379 l 0.7812,0.20379 q 1.39257,-6.55529 3.22669,-8.76303 0.61138,-0.74723 1.22275,-0.74723 0.98499,0 1.83412,1.35861 0.74724,1.12085 0.74724,1.93601 0,0.81517 -0.23776,1.59637 -0.23775,0.7812 -0.61137,1.4605 -0.33965,0.64534 -0.7812,1.29068 -0.44155,0.61138 -0.8831,1.25672 -0.98499,3.66824 -1.4605,8.21958 -0.13586,1.29068 -0.13586,2.07188 0,2.3436 0.7812,2.3436 0.88309,0 4.27962,-3.53239 0.61137,-0.6793 0.88309,-0.6793 z m -16.03158,2.03791 q 0,2.61533 1.93601,2.61533 1.15482,0 2.30964,-0.8831 1.18878,-0.8831 1.83412,-2.95497 0.0679,-3.05687 0.71327,-6.72512 -2.71722,0.54344 -4.75513,2.64929 -2.03791,2.10584 -2.03791,5.29857 z" />
      <path
         inkscape:connector-curvature="0"
         id="path893"
         style="font-style:normal;font-variant:normal;font-weight:normal;font-stretch:normal;font-size:33.96522141px;line-height:125%;font-family:'Leckerli One';-inkscape-font-specification:'Leckerli One';letter-spacing:0px;word-spacing:0px;fill:#ffffff;fill-opacity:1;stroke:none;stroke-width:1.06141317px;stroke-linecap:butt;stroke-linejoin:miter;stroke-opacity:1"
         d="m 812.64212,465.06488 q -3.39653,0 -3.39653,-6.3515 0,-3.46445 0.84913,-6.28356 1.32465,-4.34755 2.98894,-4.34755 0.985,0 1.5624,1.32464 0.47552,1.01896 0.44155,2.00395 0,1.35861 -0.81516,4.7891 -0.7812,2.98893 -0.7812,3.7022 0,0.71327 0.33965,0.985 0.37362,0.27172 0.84913,0.27172 0.50948,0 1.25671,-0.64534 0.74724,-0.64534 1.49447,-1.39258 0.74724,-0.7812 1.35861,-1.42654 0.64534,-0.64533 0.8831,-0.64533 0.47551,0 0.47551,1.15481 0,2.37757 -2.41153,4.65324 -2.37757,2.2417 -5.09478,2.20774 z m 1.39257,-19.7338 q -0.91706,-1.3586 -0.91706,-2.921 0,-1.56241 0.47551,-2.58136 0.50948,-1.05292 0.95103,-1.52844 0.44155,-0.50947 1.01896,-0.50947 0.95102,0 1.73222,1.42653 0.7812,1.39258 0.7812,2.3436 0,1.7662 -1.25671,2.78515 -1.22275,0.98499 -2.78515,0.98499 z" />
      <path
         inkscape:connector-curvature="0"
         id="path895"
         style="font-style:normal;font-variant:normal;font-weight:normal;font-stretch:normal;font-size:33.96522141px;line-height:125%;font-family:'Leckerli One';-inkscape-font-specification:'Leckerli One';letter-spacing:0px;word-spacing:0px;fill:#ffffff;fill-opacity:1;stroke:none;stroke-width:1.06141317px;stroke-linecap:butt;stroke-linejoin:miter;stroke-opacity:1"
         d="m 831.45938,449.50881 q 0.47552,-1.49447 1.52844,-1.49447 0.95103,0.034 1.80016,1.35861 0.84913,1.29067 0.84913,2.00394 -0.0679,1.39258 -0.84913,4.44945 -0.7812,3.0229 -2.20774,7.87993 2.2417,-1.73223 4.41547,-4.51738 0.74724,-0.95102 1.25672,-1.52843 0.54344,-0.61137 0.88309,-0.61137 0.47552,0 0.47552,1.08688 0,2.13981 -2.41153,4.99289 -2.37757,2.85308 -5.84202,4.44944 -0.40758,1.35861 -0.8831,2.58136 -0.47551,1.22275 -1.22275,2.13981 -1.63033,1.96998 -4.95892,1.96998 -2.2417,0 -3.83807,-1.29068 -1.5624,-1.29067 -1.5624,-3.22669 0,-1.05292 0.67931,-1.6643 0.71327,-0.61137 1.93601,-0.98499 1.22275,-0.37362 2.85308,-0.64534 1.6643,-0.27172 3.53239,-0.6793 0.16982,-0.57741 0.27172,-1.12085 0.13586,-0.57741 0.27172,-1.15482 -1.86809,1.73222 -4.58531,1.73222 -2.68325,0 -4.14375,-1.49447 -1.46051,-1.49447 -1.42654,-3.63427 0,-5.77409 3.83807,-9.10268 2.64929,-2.27567 5.50236,-2.27567 0.985,0 2.10585,0.23775 1.15482,0.23776 1.73222,0.54345 z m -8.18561,9.47629 q 0,2.61533 1.93601,2.61533 1.08689,0 2.20774,-0.81517 1.12085,-0.81517 1.80016,-2.64929 0.50948,-2.37756 1.05292,-4.38151 0.57741,-2.00395 0.7812,-2.78515 -2.85308,0.37362 -5.33254,2.54739 -2.44549,2.17378 -2.44549,5.4684 z m 3.56634,9.91785 q -1.22274,0.23775 -2.13981,0.37362 -0.91706,0.13586 -1.52843,0.23775 -0.57741,0.1019 -0.8831,0.23776 -0.27172,0.13586 -0.27172,0.44155 0,0.61137 0.74724,1.05292 0.7812,0.44155 1.52843,0.40758 1.29068,0 2.54739,-2.75118 z" />
      <path
         inkscape:connector-curvature="0"
         id="path897"
         style="font-style:normal;font-variant:normal;font-weight:normal;font-stretch:normal;font-size:33.96522141px;line-height:125%;font-family:'Leckerli One';-inkscape-font-specification:'Leckerli One';letter-spacing:0px;word-spacing:0px;fill:#ffffff;fill-opacity:1;stroke:none;stroke-width:1.06141317px;stroke-linecap:butt;stroke-linejoin:miter;stroke-opacity:1"
         d="m 841.96365,465.06488 q -3.39652,0 -3.39652,-6.3515 0,-3.46445 0.84913,-6.28356 1.32464,-4.34755 2.98894,-4.34755 0.98499,0 1.5624,1.32464 0.47551,1.01896 0.44155,2.00395 0,1.35861 -0.81517,4.7891 -0.7812,2.98893 -0.7812,3.7022 0,0.71327 0.33965,0.985 0.37362,0.27172 0.84913,0.27172 0.50948,0 1.25672,-0.64534 0.74723,-0.64534 1.49447,-1.39258 0.74723,-0.7812 1.3586,-1.42654 0.64534,-0.64533 0.8831,-0.64533 0.47551,0 0.47551,1.15481 0,2.37757 -2.41153,4.65324 -2.37756,2.2417 -5.09478,2.20774 z m 1.39257,-19.7338 q -0.91706,-1.3586 -0.91706,-2.921 0,-1.56241 0.47552,-2.58136 0.50947,-1.05292 0.95102,-1.52844 0.44155,-0.50947 1.01896,-0.50947 0.95102,0 1.73222,1.42653 0.7812,1.39258 0.7812,2.3436 0,1.7662 -1.25671,2.78515 -1.22275,0.98499 -2.78515,0.98499 z" />
      <path
         inkscape:connector-curvature="0"
         id="path899"
         style="font-style:normal;font-variant:normal;font-weight:normal;font-stretch:normal;font-size:33.96522141px;line-height:125%;font-family:'Leckerli One';-inkscape-font-specification:'Leckerli One';letter-spacing:0px;word-spacing:0px;fill:#ffffff;fill-opacity:1;stroke:none;stroke-width:1.06141317px;stroke-linecap:butt;stroke-linejoin:miter;stroke-opacity:1"
         d="m 849.26671,463.12886 q -0.37362,-0.91706 -0.54345,-2.10584 -0.16982,-1.22275 -0.16982,-3.39653 0,-2.17377 0.81516,-5.87598 h -1.52843 q -0.40758,0 -0.40758,-0.33965 0,-0.81517 0.13586,-1.32464 0.16982,-0.54345 0.74723,-1.22275 h 0.81517 q 0.47551,0 1.01895,-0.034 1.63033,-5.23064 3.32859,-5.23064 1.35861,0.034 1.90206,1.73222 0.13586,0.47552 0.30568,1.01896 l -1.39257,2.4455 q 2.37757,0.0679 2.98894,0.0679 0.64534,0 0.6793,0.13586 0.0679,0.10189 0.0679,0.33965 0,0.61137 -0.30568,1.52844 -0.27172,0.91706 -0.64534,0.88309 l -3.39652,-0.16983 q -0.71327,4.14376 -0.71327,6.86098 0,2.71722 0.7812,2.71722 0.64534,0 2.3436,-1.05292 1.69826,-1.08689 2.44549,-2.07188 0.74724,-0.98499 1.22275,-0.98499 0.47551,0 0.47551,1.15481 0,1.15482 -0.81516,2.37757 -0.81517,1.18878 -2.07188,2.20774 -1.22275,0.98499 -2.75118,1.63033 -1.49447,0.64534 -2.61533,0.64534 -1.12085,0 -1.73222,-0.50948 -0.57741,-0.54344 -0.98499,-1.42654 z" />
      <path
         inkscape:connector-curvature="0"
         id="path901"
         style="font-style:normal;font-variant:normal;font-weight:normal;font-stretch:normal;font-size:33.96522141px;line-height:125%;font-family:'Leckerli One';-inkscape-font-specification:'Leckerli One';letter-spacing:0px;word-spacing:0px;fill:#ffffff;fill-opacity:1;stroke:none;stroke-width:1.06141317px;stroke-linecap:butt;stroke-linejoin:miter;stroke-opacity:1"
         d="m 879.37369,456.94719 q 0.61138,0 0.61138,1.5624 0,0.84913 -0.71327,2.07188 -0.71327,1.18878 -1.86809,2.20774 -1.12085,0.98499 -2.51343,1.63033 -1.39257,0.64534 -2.71721,0.64534 -1.80016,0 -2.41153,-3.15877 -0.8831,1.46051 -2.30964,2.41153 -1.42654,0.91706 -3.83807,0.91706 -2.37756,0 -3.83807,-1.49447 -1.4605,-1.49447 -1.42654,-3.63427 0,-5.77409 3.83807,-9.10268 1.63033,-1.39258 3.02291,-1.83413 1.42654,-0.44154 2.98894,-0.44154 1.5624,0 2.54739,0.54344 0.47551,-0.98499 1.08688,-0.98499 1.18879,0 2.24171,1.05292 1.08689,1.01896 1.08689,1.93602 -0.47552,1.12085 -1.39258,2.68325 -0.27172,1.5624 -0.27172,4.38151 0,2.81912 0.71327,2.81912 0.8831,0 4.27962,-3.53239 0.61137,-0.6793 0.88309,-0.6793 z m -16.03158,2.03791 q 0,2.61533 1.93602,2.61533 2.07188,-0.034 3.43048,-2.20774 0.47552,-0.74724 0.7812,-1.83413 0,-3.8041 0.67931,-6.52132 -2.75118,0.54344 -4.7891,2.64929 -2.03791,2.10584 -2.03791,5.29857 z" />
      <path
         inkscape:connector-curvature="0"
         id="path903"
         style="font-style:normal;font-variant:normal;font-weight:normal;font-stretch:normal;font-size:33.96522141px;line-height:125%;font-family:'Leckerli One';-inkscape-font-specification:'Leckerli One';letter-spacing:0px;word-spacing:0px;fill:#ffffff;fill-opacity:1;stroke:none;stroke-width:1.06141317px;stroke-linecap:butt;stroke-linejoin:miter;stroke-opacity:1"
         d="m 885.86212,465.06488 q -4.85702,0.034 -6.62322,-3.63428 -0.61137,-1.29068 -0.61137,-3.2267 0,-1.96998 0.33965,-4.17772 0.67931,-4.41548 2.61532,-8.15165 0.985,-1.90205 2.20774,-3.26066 2.68326,-2.98894 5.97788,-2.95498 1.46051,0 2.27567,0.81517 0.84913,0.7812 0.84913,2.27567 0,1.49447 -0.88309,3.0229 -0.8831,1.49447 -2.27567,3.1248 -1.35861,1.59637 -3.02291,3.36256 -1.66429,1.76619 -3.26066,3.83807 v 1.35861 q 0,1.90205 0.81517,2.78515 0.81516,0.88309 1.90205,0.88309 2.92101,0 5.16271,-2.88704 0.91706,-1.18878 1.39258,-1.18878 0.47551,0 0.47551,1.15481 0,1.15482 -0.64534,2.37757 -0.61137,1.18878 -1.63033,2.20774 -1.01896,0.98499 -2.3436,1.63033 -1.32464,0.64534 -2.71722,0.64534 z m 1.83412,-18.23933 q 0.71327,-0.88309 1.12086,-1.59636 0.40758,-0.71327 0.40758,-1.46051 0,-0.7812 -0.54344,-0.7812 -1.18879,0 -2.64929,2.4455 -1.42654,2.4455 -2.13981,6.41943 1.15482,-1.76619 2.10584,-2.95498 0.98499,-1.18878 1.69826,-2.07188 z" />
      <path
         inkscape:connector-curvature="0"
         id="path905"
         style="font-style:normal;font-variant:normal;font-weight:normal;font-stretch:normal;font-size:33.96522141px;line-height:125%;font-family:'Leckerli One';-inkscape-font-specification:'Leckerli One';letter-spacing:0px;word-spacing:0px;fill:#ffffff;fill-opacity:1;stroke:none;stroke-width:1.06141317px;stroke-linecap:butt;stroke-linejoin:miter;stroke-opacity:1"
         d="m 929.54987,456.94719 q 0.57741,0 0.57741,1.5624 0,0.84913 -0.71327,2.07188 -0.71327,1.18878 -1.86809,2.20774 -1.12085,0.98499 -2.51343,1.63033 -1.39257,0.64534 -2.71721,0.64534 -2.00395,0 -2.78515,-0.98499 -0.74724,-1.01896 -0.74724,-2.95498 0,-1.96998 1.52844,-6.72511 -4.6872,-0.20379 -6.82701,-0.20379 h -0.47552 q -0.61137,3.77014 -0.61137,7.91389 0,1.83413 -1.39257,2.51343 -0.64534,0.30569 -1.25672,0.57741 -0.57741,0.27172 -1.25671,0.27172 -1.69826,0 -1.69826,-3.05687 0,-3.05687 1.39257,-7.84597 -1.49447,0.16983 -2.64928,0.33966 -1.12086,0.16982 -1.7662,0.16982 -0.64533,0 -0.64533,-0.33965 0,-1.01896 1.66429,-2.07188 1.69826,-1.05292 4.58531,-1.59636 3.19273,-8.11769 7.812,-10.83491 1.69826,-1.01896 3.60031,-1.01896 3.39652,0.034 4.89099,1.83413 1.52844,1.80015 1.52844,4.78909 0.034,2.95498 -1.80016,7.71011 -0.6793,1.83412 -1.25671,3.32859 -0.57741,1.49447 -0.57741,2.41153 0,0.91706 0.13586,1.39257 0.13586,0.47552 0.64534,0.47552 0.91706,0 4.31358,-3.53239 0.61138,-0.6793 0.8831,-0.6793 z m -7.23459,-10.12164 q 0,-2.95497 -2.20774,-2.95497 -2.24171,0 -3.87204,1.90205 -1.59636,1.86809 -2.47946,5.02685 l 7.7101,0.1019 q 0.84914,-2.71722 0.84914,-4.07583 z" />
      <path
         inkscape:connector-curvature="0"
         id="path907"
         style="font-style:normal;font-variant:normal;font-weight:normal;font-stretch:normal;font-size:33.96522141px;line-height:125%;font-family:'Leckerli One';-inkscape-font-specification:'Leckerli One';letter-spacing:0px;word-spacing:0px;fill:#ffffff;fill-opacity:1;stroke:none;stroke-width:1.06141317px;stroke-linecap:butt;stroke-linejoin:miter;stroke-opacity:1"
         d="m 941.44832,449.50881 q 0.47551,-1.49447 1.52844,-1.49447 0.95102,0.034 1.80015,1.35861 0.84913,1.29067 0.84913,2.00394 -0.0679,1.39258 -0.84913,4.44945 -0.7812,3.0229 -2.20774,7.87993 2.24171,-1.73223 4.41548,-4.51738 0.74724,-0.95102 1.25672,-1.52843 0.54344,-0.61137 0.88309,-0.61137 0.47551,0 0.47551,1.08688 0,2.13981 -2.41153,4.99289 -2.37756,2.85308 -5.84201,4.44944 -0.40759,1.35861 -0.8831,2.58136 -0.47551,1.22275 -1.22275,2.13981 -1.63033,1.96998 -4.95892,1.96998 -2.24171,0 -3.83807,-1.29068 -1.5624,-1.29067 -1.5624,-3.22669 0,-1.05292 0.6793,-1.6643 0.71327,-0.61137 1.93602,-0.98499 1.22275,-0.37362 2.85308,-0.64534 1.6643,-0.27172 3.53238,-0.6793 0.16983,-0.57741 0.27172,-1.12085 0.13587,-0.57741 0.27173,-1.15482 -1.86809,1.73222 -4.58531,1.73222 -2.68325,0 -4.14376,-1.49447 -1.4605,-1.49447 -1.42653,-3.63427 0,-5.77409 3.83807,-9.10268 2.64928,-2.27567 5.50236,-2.27567 0.98499,0 2.10584,0.23775 1.15482,0.23776 1.73223,0.54345 z m -8.18562,9.47629 q 0,2.61533 1.93602,2.61533 1.08689,0 2.20774,-0.81517 1.12085,-0.81517 1.80016,-2.64929 0.50947,-2.37756 1.05292,-4.38151 0.57741,-2.00395 0.7812,-2.78515 -2.85308,0.37362 -5.33254,2.54739 -2.4455,2.17378 -2.4455,5.4684 z m 3.56635,9.91785 q -1.22275,0.23775 -2.13981,0.37362 -0.91706,0.13586 -1.52843,0.23775 -0.57741,0.1019 -0.8831,0.23776 -0.27172,0.13586 -0.27172,0.44155 0,0.61137 0.74723,1.05292 0.7812,0.44155 1.52844,0.40758 1.29068,0 2.54739,-2.75118 z" />
      <path
         inkscape:connector-curvature="0"
         id="path909"
         style="font-style:normal;font-variant:normal;font-weight:normal;font-stretch:normal;font-size:33.96522141px;line-height:125%;font-family:'Leckerli One';-inkscape-font-specification:'Leckerli One';letter-spacing:0px;word-spacing:0px;fill:#ffffff;fill-opacity:1;stroke:none;stroke-width:1.06141317px;stroke-linecap:butt;stroke-linejoin:miter;stroke-opacity:1"
         d="m 955.79067,461.26077 q 2.64929,0 5.12875,-2.10584 0.91706,-0.7812 1.49447,-1.42654 0.57741,-0.6793 0.8831,-0.6793 0.47551,0 0.47551,0.95102 0,0.95103 -0.50948,2.13981 -0.50948,1.15482 -1.69826,2.27567 -2.92101,2.75118 -8.01579,2.75118 -4.04186,0 -5.50237,-2.92101 -0.50948,-1.01895 -0.50948,-2.921 0,-1.90206 0.74724,-3.93997 0.74723,-2.07188 1.96998,-3.56635 1.25671,-1.49447 2.88704,-2.30963 1.63034,-0.84913 3.46446,-0.84913 1.86808,0 2.85308,0.91706 1.01895,0.91706 1.01895,2.37756 0,1.46051 -0.74723,2.41153 -0.71327,0.91706 -1.86809,1.5624 -1.15482,0.61138 -2.58136,1.12086 -1.39257,0.47551 -2.75118,1.08688 v 0.84913 q 0.034,1.22275 1.01896,1.73223 0.98499,0.50948 2.2417,0.54344 z m -0.57741,-9.57819 q -1.76619,0 -2.44549,4.10979 0.71327,-0.47551 1.32464,-0.84913 0.64534,-0.37362 1.12085,-0.71327 1.01896,-0.74723 1.05292,-1.69826 0,-0.84913 -1.05292,-0.84913 z" />
      <path
         inkscape:connector-curvature="0"
         id="path911"
         style="font-style:normal;font-variant:normal;font-weight:normal;font-stretch:normal;font-size:33.96522141px;line-height:125%;font-family:'Leckerli One';-inkscape-font-specification:'Leckerli One';letter-spacing:0px;word-spacing:0px;fill:#ffffff;fill-opacity:1;stroke:none;stroke-width:1.06141317px;stroke-linecap:butt;stroke-linejoin:miter;stroke-opacity:1"
         d="m 966.59053,448.01434 q 1.22275,0 2.30964,2.3436 1.59636,-1.6643 3.93996,-1.6643 2.37757,0 3.56635,1.05292 1.18878,1.01896 1.18878,2.92101 0,1.86809 -0.50948,3.80411 -0.47551,1.93601 -0.71327,2.78514 -0.20379,0.81517 -0.20379,1.35861 0,0.54345 0.37362,0.54345 0.50948,0 1.25671,-0.64534 0.74724,-0.64534 1.49447,-1.39258 0.74724,-0.7812 1.35861,-1.42654 0.64534,-0.64533 0.8831,-0.64533 0.47551,0 0.47551,1.15481 0,2.37757 -2.3436,4.58531 -3.93997,2.30963 -5.02685,2.30963 -0.1019,0 -0.13586,-0.034 -2.71722,0 -2.71722,-4.34755 0,-1.86809 0.33965,-3.43049 0.37362,-1.5624 0.54344,-2.27567 0.16983,-0.71327 0.16983,-1.4605 0,-1.22275 -1.42654,-1.22275 -1.39257,0 -2.68325,2.10584 -1.25671,2.07188 -1.69826,4.31359 v 0.23775 q 0,1.15482 0.33965,2.37757 0.37362,1.22275 0.37362,1.69826 0,1.15482 -2.88705,2.27567 -0.44154,0.16983 -0.7812,0.16983 -0.84913,0 -1.18878,-0.8831 -0.30569,-0.8831 -0.30569,-2.75118 0,-4.82306 0.37362,-6.96287 0.50948,-3.19273 2.30964,-5.94392 0.61137,-0.95102 1.32464,-0.95102 z" />
      <path
         inkscape:connector-curvature="0"
         id="path913"
         style="font-style:normal;font-variant:normal;font-weight:normal;font-stretch:normal;font-size:33.96522141px;line-height:125%;font-family:'Leckerli One';-inkscape-font-specification:'Leckerli One';letter-spacing:0px;word-spacing:0px;fill:#ffffff;fill-opacity:1;stroke:none;stroke-width:1.06141317px;stroke-linecap:butt;stroke-linejoin:miter;stroke-opacity:1"
         d="m 993.80039,456.94719 q 0.61137,0 0.61137,1.05292 0,1.01896 -0.54344,2.20774 -0.50948,1.18878 -1.59636,2.30964 -1.05293,1.08688 -2.71722,1.86808 -1.6643,0.7812 -3.93997,0.7812 -2.2417,0 -3.93996,-1.32464 -1.69826,-1.35861 -1.69826,-3.87204 0,-2.54739 0.7812,-4.5853 0.81516,-2.07188 2.10584,-3.56635 1.32464,-1.49447 2.98894,-2.30963 1.66429,-0.84913 3.15876,-0.84913 2.61533,0 2.61533,2.07187 0,1.18879 -0.50948,1.90206 -0.47551,0.71327 -0.98499,0.71327 -0.67931,0 -1.18879,-0.47552 -0.50947,-0.47551 -1.12085,-0.47551 -0.61137,-0.034 -1.18878,0.57741 -0.54344,0.61137 -0.91706,1.5624 -0.74724,1.90205 -0.74724,4.44944 0.034,1.22275 1.12086,1.83413 0.74723,0.40758 1.76619,0.44154 1.01895,0 1.93601,-0.6793 0.95103,-0.67931 1.73223,-1.46051 0.7812,-0.81516 1.35861,-1.49447 0.61137,-0.6793 0.91706,-0.6793 z" />
      <path
         inkscape:connector-curvature="0"
         id="path915"
         style="font-style:normal;font-variant:normal;font-weight:normal;font-stretch:normal;font-size:33.96522141px;line-height:125%;font-family:'Leckerli One';-inkscape-font-specification:'Leckerli One';letter-spacing:0px;word-spacing:0px;fill:#ffffff;fill-opacity:1;stroke:none;stroke-width:1.06141317px;stroke-linecap:butt;stroke-linejoin:miter;stroke-opacity:1"
         d="m 1001.8581,462.48352 q -1.6982,2.3436 -4.55132,2.3436 -2.30964,0 -3.70221,-0.95102 -1.35861,-0.985 -1.35861,-3.09084 0,-0.8831 0.23775,-1.63033 0.27173,-0.74724 0.84914,-1.83412 l 0.98499,-8.04976 q 1.05292,-0.81517 2.85308,-0.81517 1.52843,0 1.73222,2.03792 0.0679,0.61137 0.0679,1.4605 0,0.81517 -0.27172,1.73223 -1.35861,4.6872 -1.32464,6.28356 0,1.22275 1.42654,1.22275 1.42658,0 2.10588,-0.91706 0.6793,-0.91706 1.1548,-2.27567 0.8831,-3.77014 1.6303,-6.21563 0.7812,-2.4455 0.985,-2.92101 0.3397,-0.81517 1.2907,-0.84913 0.951,0.034 1.8002,1.35861 0.8491,1.29067 0.8491,2.00394 -0.068,2.37757 -2.955,11.98973 2.2078,-1.73223 4.3815,-4.24566 0.7473,-0.88309 1.2567,-1.4605 0.5095,-0.61137 0.8152,-0.61137 0.4755,0 0.4755,1.08688 0,2.13981 -2.4115,4.99289 -2.3776,2.85308 -5.842,4.44944 -0.4076,1.35861 -0.8831,2.58136 -0.4755,1.22275 -1.2228,2.13981 -1.6303,1.96998 -4.95892,1.96998 -2.2417,0 -3.83807,-1.29068 -1.5624,-1.29067 -1.5624,-3.22669 0,-1.08689 0.71327,-1.73223 0.74724,-0.64534 2.00395,-1.08688 1.29068,-0.40759 2.98894,-0.74724 1.69826,-0.30569 3.63433,-0.7812 0.4755,-2.03791 0.6453,-2.92101 z m -4.61925,9.17061 q 1.59636,0 2.88705,-2.78515 -1.22276,0.23776 -2.17378,0.33965 -0.95103,0.13587 -1.63034,0.23776 -1.3586,0.20379 -1.32464,0.71327 0,0.64534 0.74724,1.08689 0.7812,0.44155 1.49447,0.40758 z" />
    </g>
    <text
       xml:space="preserve"
       style="font-style:normal;font-variant:normal;font-weight:normal;font-stretch:normal;line-height:0%;font-family:'Leckerli One';-inkscape-font-specification:'Leckerli One';letter-spacing:0px;word-spacing:0px;fill:#000000;fill-opacity:1;stroke:none;stroke-width:1px;stroke-linecap:butt;stroke-linejoin:miter;stroke-opacity:1"
       x="456.48337"
       y="490.52237"
       id="text3352"><tspan
         sodipodi:role="line"
         id="tspan3354"
         x="456.48337"
         y="490.52237"
         style="font-style:normal;font-variant:normal;font-weight:normal;font-stretch:normal;font-size:40px;line-height:1.25;font-family:'Leckerli One';-inkscape-font-specification:'Leckerli One'"> </tspan></text>
  </g>
</svg>
