<svg xmlns="http://www.w3.org/2000/svg" width="671.975" height="322.587" viewBox="0 0 671.97498 322.58749"><path d="M0-.001h18.42v87.497c0 23.795 13.24 43.365 38.762 43.365 25.52 0 38.76-19.57 38.76-43.365V0h18.419v92.87c0 31.467-23.793 55.26-57.563 55.26C23.794 148.13 0 124.337 0 92.87V-.001m148.502 0V145.83h-17.27V-.001h17.27m25.919 21.682h17.268V45.86h15.927v15.157H191.69v73.005h10.57l-.014 11.809h-27.824V61.016h-13.817V45.86h13.817V21.68M392.78 84.619c0-17.269-9.977-24.945-21.875-24.945-14.393 0-25.136 9.017-25.136 25.712v60.443H328.5v-61.21c0-17.269-9.976-24.945-21.876-24.945-14.392 0-25.135 9.017-25.135 25.712v48.655h10.552v11.788H264.22V45.857h17.27v11.898h.384c4.605-10.17 17.077-14.2 27.63-14.2 10.17 0 21.3 2.686 29.55 17.269 6.14-12.663 19.38-17.269 32.62-17.269 21.492 0 38.377 12.857 38.377 39.145v51.341H420.6l-.008 11.788H392.78v-61.21m76.37 8.442c-21.106 0-28.206 10.169-28.206 19.956 0 9.787 7.1 19.955 28.206 19.955 17.15 0 27.425-10.13 27.413-9.683 0 0 .012-8.445.012-10.282l.001-9.263S486.331 93.06 469.15 93.06m27.63-14.2c0-16.501-16.499-20.147-29.931-20.147-9.403 0-18.23 2.305-27.631 6.91l-7.483-14.393c15.156-6.334 27.054-7.676 36.072-7.676 23.987 0 46.244 10.169 46.244 33.962v56.523h10.554l-.003 11.789h-26.67v-10.747c-8.827 9.212-18.612 13.05-31.85 13.05-24.37 0-43.558-13.625-43.558-35.883 0-18.229 15.54-34.347 43.366-34.347 10.551 0 21.682 3.07 30.89 11.323V78.861m39.53-57.18h17.267V45.86h15.927v15.157h-15.927v73.024h10.555v11.79H536.31V61.016h-13.816V45.86h13.816V21.68" fill="#47a138"/><path d="M652.396 88.264c-1.727-16.502-15.156-28.59-33.005-28.59-21.105 0-31.275 14.967-33.003 28.59h66.008zm15.159 38.185c-13.432 14.966-27.631 21.681-45.092 21.681-35.498 0-54.495-25.711-54.495-52.381 0-28.4 20.34-52.194 51.617-52.194 30.892 0 52.384 23.604 52.384 58.91h-85.582c2.69 17.076 16.503 29.549 35.884 29.549 12.28 0 23.218-5.759 32.045-16.119l13.239 10.554" fill="#47a138"/><path d="M242.949 100.567l8.153-.047V53.366c0-4.219-3.24-7.634-7.46-7.634h-18.788a7.636 7.636 0 0 0-7.642 7.637l-.002 7.488v39.7l7.665.01v45.262l18.046-.019.028-45.243zM245.7 28.11c0 6.423-5.209 11.635-11.633 11.635-6.425 0-11.625-5.212-11.625-11.635 0-6.422 5.2-11.632 11.625-11.632 6.424 0 11.633 5.21 11.633 11.632M142.804 189.594c-.75-5.203-3.756-8.385-8.439-8.385-6.244 0-7.92 4.106-7.92 7.111 0 3.295 2.083 5.38 6.416 6.997l5.55 2.08c6.998 2.603 10.232 6.703 10.232 12.024 0 7.109-5.667 12.252-14.104 12.252-7.979 0-13.644-4.214-14.337-13.002h5.55c.462 4.796 2.89 8.149 9.074 8.149 4.8 0 8.268-3.061 8.268-6.936 0-3.41-2.834-5.609-6.82-7.169l-5.61-2.197c-6.531-2.542-9.769-6.358-9.769-12.025 0-7.57 6.301-12.137 13.526-12.137 7.285 0 12.952 4.337 13.587 13.238h-5.204m51.757 26.881c8.959 0 17.4-7.054 17.4-17.459 0-10.406-8.441-17.461-17.4-17.461-8.96 0-17.4 7.055-17.4 17.461 0 10.405 8.44 17.46 17.4 17.46m0-40.12c14.911 0 23.295 11.791 23.295 22.66 0 10.868-8.384 22.656-23.295 22.656-14.914 0-23.295-11.788-23.295-22.656 0-10.869 8.381-22.66 23.295-22.66m47.948.693h22.719v5.205h-17.17v13.931h17.17v5.199h-17.17v19.597h-5.55v-43.932m55.17 5.205h-10.984v-5.205h27.515v5.205h-10.983v38.727h-5.549v-38.727m87.078-5.205h5.891l-13.524 43.932h-4.278l-10.579-34.797h-.115l-10.579 34.797h-4.277l-13.526-43.932h5.896l9.827 33.357h.115l9.998-33.357h5.207l9.999 33.472h.116l9.829-33.472m42.456 7.282l-8.325 21.56h16.649l-8.324-21.56zm10.229 26.421h-20.461l-3.989 10.229h-6.07l17.861-43.932h4.855l17.866 43.932h-6.07l-3.992-10.229m38.468-11.908c.75.057 1.563.057 4.856.057 8.495 0 11.444-3.702 11.444-8.5 0-5.146-3.524-8.499-9.305-8.499h-6.995v16.942zm0 3.408v18.729h-5.552v-43.932h12.659c8.443 0 14.745 4.853 14.745 13.297 0 7.86-6.189 12.717-13.357 13.121l17.112 17.514h-7.805l-17.802-18.729m48.225-25.203h22.723v5.205h-17.168v13.931h17.168v5.199h-17.168v14.396h17.168v5.201h-22.723v-43.932" fill="#5c5e65"/><path d="M398.502 276.112c-.28-1.436-.522-3.145.218-3.563.966-.548 1.862-.708 2.771-.707 1.628.002 2.176.8 2.085 2.477-.327 6.032-.747 12.068-.924 18.095-.073 2.55.315 4.747.6 7.271.155 1.372-.115 1.874-1.492 2.054-2.522.33-3.671-.79-3.581-3.284.231-6.358.415-12.37.574-18.725.028-1.15-.153-2.291-.25-3.618m-3.306.913c-3.063.563-5.056 1.143-8.05 1.721-.362.069-1.87.384-1.87.384.01 5.054-.103 10.564.007 15.609.015.682.301 1.35.525 2 .101.29 1.094 1.344.582 2.654-.582 1.489-1.94 2.12-3.585 2.275-1.028.096-1.762-.248-1.823-1.3-.153-2.632-.293-5.27-.308-7.913-.025-4.099.056-8.204.096-12.431-1.639.377-3.146.736-4.657 1.07-1.988.44-3.678-.544-4.156-2.394-.29-1.12.402-2.037 1.56-2.074 2.383-.076 4.775-.279 7.142-.427.132-1.9.025-15.273 1.486-21.574 1.08-4.658 6.195-5.705 10.09-4.324 1.185.421 4.176 2.419 5.948 5.952 1.092 2.18-1.209 3.846-2.184 2.842-1.481-1.525-3.964-4.14-6.306-4.94-1.157-.395-3.342-.026-3.917 5.751-.555 5.572-.447 14.892-.4 15.454 2.685-.43 5.33-.822 7.963-1.272 1.915-.328 4.076 2.53 1.857 2.937m-175.695-16.868c-4.047.557-7.006 1.262-7.006 1.262s-.041 11.642-.24 17.133c5.28-1.3 12.758-5.453 17.113-9.55 1.39-1.308 2.799-2.737 3.721-4.425 1.345-2.463.046-5.02-4.497-5.02 0 0-5.042.044-9.09.6zm-11.39 24.327c-.882.217-2.587.84-3.943.53-1.51-.344-2.67-2.871-.556-3.809 1.372-.609 2.86-.872 4.4-1.316-.154-5.444-.304-11.681-.457-17.053-1.681.254-3.19.724-4.67.653-5.148-.248-3.937-3.805-2.478-4.175 2.287-.579 3.687-.663 5.946-1.064.252-.044.642-.448.67-.699.134-1.19.87-1.69 1.854-1.912 1.18-.268 2.563-.73 3.312.444.75 1.177.909 1.044 1.991.938 4.033-.391 8.858-.985 12.88-1.119 2.851-.093 5.61.113 8.148 1.58 2.687 1.553 3.519 4.791 2.024 7.838-1.457 2.966-3.8 5.167-6.263 7.212-5.326 4.42-10.916 7.404-17.256 9.633-1.16.409-1.46.899-1.378 2.13.253 3.743-.015 12.94.137 16.696.002.083.01.165.02.246.227 2.036.008 2.538-1.238 2.834-1.484.351-3.324-.604-3.61-1.927-.109-.51-.125-1.061-.094-1.594.159-2.664.36-5.326.522-7.989.05-.866.027-7.009.04-8.077m77.686-3.26c1.981-1.724 3.974-3.469 6.306-5.494 3.339-2.899 7.137-5.03 11.377-6.042 1.518-.364 3.19-.367 4.685-.085 2.25.423 3.318 2.165 3.35 4.586.053 3.79-1.568 7.02-3.767 9.976-4.385 5.9-9.959 9.459-16.045 13.175-.965.589-2.221.739-3.342.821-.462.033-1.138-.555-1.318-1.044-.158-.43.098-1.236.429-1.662.417-.536 1.07-.912 1.669-1.261 6.417-3.734 11.996-7.64 16.36-13.898.753-1.083 1.306-2.386 1.678-3.656.676-2.314-.691-3.831-2.914-3.204-1.498.425-3.02 1.03-4.367 1.869-5.332 3.324-9.956 6.655-13.726 11.879a5.729 5.729 0 0 0-1.123 3.265c-.341 8.937-.715 17.873-.1 26.746.074 1.067.09 2.15.056 3.229-.03 1.035-.367 1.871-1.55 2.09-1.335.248-2.412-.132-2.713-1.238a9.514 9.514 0 0 1-.319-2.668c.15-6.605.311-13.212.537-19.82.28-8.147.61-16.294.952-24.443.077-1.867.957-3.001 2.517-3.489 1.915-.597 2.821.259 2.511 2.285-.447 2.935-.832 5.877-1.143 8.083m41.641 4.811c4.924-1.639 11.699-7 13.949-11.197.179-.335.017-1.628-1.201-.943-5.187 2.912-8.95 7.266-12.748 12.14m-6.355 8.161c.09-3.15 1.515-7.181 3.208-9.852 3.438-5.43 7.572-10.23 13.098-13.655 1.198-.743 2.633-1.318 3.989-1.497 2.615-.342 4.407 1.545 4.39 4.18-.019 2.557-1.08 4.745-2.773 6.671-4.296 4.89-9.617 8.145-15.69 10.067-1.016.321-1.378.844-1.568 1.716-.932 4.294 1.938 7.05 6.448 6.291 3.247-.546 5.977-2.239 8.488-4.266 2.739-2.207 4.015-3.49 6.669-5.81 2.25-1.967 3.201.606 2.123 1.828-4.395 4.981-7.345 8.258-13.04 10.842-2.968 1.346-5.84 1.721-9.01 1.245-4.23-.635-6.41-3.435-6.332-7.76m-47.086-15.226c-1.467 5.738-9.412 16.865-14.475 18.557-4.014 1.343-5.755.142-4.949-5.048.441-2.845 1.714-5.088 3.244-7.592.806-1.318 1.517-.327 2.662-2.185 3.095-5.025 9.493-10.71 13.021-9.179 1.4.61.833 4.133.497 5.447zm-29.192-5.075c1.218-.685 1.38.609 1.2.944-2.25 4.196-9.025 9.557-13.947 11.196 3.797-4.874 7.561-9.228 12.747-12.14zm28.737-4.496c-4.844-.28-13.085 2.786-21.113 16.75-.19.363-4.545 5.612-7.136 7.702-2.511 2.028-5.241 3.72-8.488 4.266-4.51.758-7.38-1.997-6.448-6.29.188-.873.551-1.396 1.567-1.717 6.074-1.922 11.395-5.176 15.69-10.066 1.693-1.927 2.755-4.115 2.773-6.671.018-2.636-1.775-4.523-4.39-4.18-1.355.178-2.79.753-3.989 1.496-5.525 3.426-9.66 8.225-13.099 13.655-1.691 2.67-3.194 6.71-3.206 9.852-.016 4.327 2.116 6.887 6.345 7.521 3.17.477 6.214-.176 9.182-1.522 3.673-1.666 6.06-3.857 8.908-6.569a18.809 18.809 0 0 0-.089 1.951c0 3.527 2.805 5.933 6.189 6.296 8.162.875 15.846-8.74 19.06-14.844 1.971-3.745 3.348-8.47 3.284-12.261-.051-2.98-2.071-5.197-5.04-5.37m177.805 20.026c-2.579 4.48-7.926 7.716-12.84 10.4-1.736.947-3.476 1.887-5.474 1.83-1.063-.029-1.813-.59-2.029-1.604-.213-1.004.187-1.914 1.123-2.504.539-.338 1.136-.597 1.729-.824 1.586-.603 3.228-1.063 4.77-1.773a25.61 25.61 0 0 0 8.522-6.334c.63-.717.704-2.874-1.284-2.305-3.241.929-6.465 1.981-9.717 2.874-2.674.732-5.371 1.456-8.085 1.857-3.279.485-5.238-2.132-4.269-5.333.881-2.915 2.575-5.37 4.664-7.582 2.816-2.989 5.87-5.713 9.391-7.831 1.16-.699 2.414-1.33 3.691-1.701 2.387-.698 4.838.688 5.42 2.92.129.492.18 1.091.02 1.574-.183.558-.56 1.318-1.005 1.477-.421.15-1.193-.224-1.542-.613-1.098-1.224-2.381-1.098-3.729-.395-3.542 1.85-6.509 4.477-9.204 7.403-1.187 1.289-2.25 2.719-3.201 4.185-.777 1.199-.099 2.21 1.305 1.954 1.81-.331 3.612-.798 5.388-1.334 3.6-1.089 7.17-2.302 10.775-3.374.825-.246 1.755-.241 2.605-.16 3.257.305 5.378 3.178 2.976 7.193" fill="#47a138"/><path d="M458.741 276.47c-1.806.529-3.535 1.061-5.276 1.533-.765.21-1.65.566-2.308.372-.707-.209-1.478-.864-1.74-1.538-.338-.87.557-1.45 1.334-1.72 1.278-.45 7.86-2.345 7.993-2.608.38-.759.487-3.632.703-5.06.255-1.697.508-3.397.842-5.085.385-1.944 1.405-2.843 3.049-2.813 1.483.026 2.312 1.003 2.037 2.506-.482 2.642-1.012 6.158-1.519 8.797-.03.155-.025.314-.049.665 1.452-.311 2.825-.612 4.203-.9 2.554-.535 4.224-1.108 6.786-1.574 1.28-.234 2.728-.468 3.503.782.395.638.019 2.802-1.506 3.317-1.387.468-2.926.073-4.368.312-3.299.548-5.704 1.235-9.096 1.885-.179 4.666-.414 9.111-.492 13.548-.033 2.022.223 4.912.388 6.921.099 1.197.872 1.574 1.149 2.639.276 1.066-.607 2.936-2.739 3.296-1.692.285-2.743-.738-2.772-2.839-.053-3.521-.042-7.926-.06-11.448-.018-3.6-.04-7.201-.062-10.988m-45.935 2.819c4.464-7.295 13.145-9.824 15.636-8.101.93.642-.07 3.062-1.246 3.003-4.431-.221-10.695 5.275-12.272 9.937-1.066 3.154-.365 12.59-.655 15.941-.048.538-.543 1.271-1.025 1.556-.759.447-2.409-.176-2.75-1.037a7.33 7.33 0 0 1-.496-2.715c.035-3.192.565-6.462.188-9.566-.491-4.05-1.608-7.99-2.575-11.938-.471-1.93.014-3.284 1.713-3.875 1.33-.463 2.237-.039 2.691 1.09.455 1.129.791 5.705.791 5.705M319.13 268.22c-.26 5.411-.629 8.887-.828 14.996-.178 5.481-.172 10.955-.238 16.434-.004.328.082.65.124.976.195 1.558-.47 2.292-2.054 2.272-2.033-.027-2.754-.852-2.683-2.843.414-11.426.849-20.215 1.164-31.637.098-3.564.209-6.652-.099-10.196-.294-3.37 4.854-2.922 5.054-1.179.055.486.04.99.007 1.487-.2 2.996-.188 5.993-.447 9.69m84.45-2.7c-.289 1.891-1.864 3.219-3.516 2.966-1.654-.252-2.76-1.99-2.472-3.88.29-1.891 1.864-3.22 3.517-2.967 1.654.252 2.76 1.99 2.471 3.881m70.382 33.237c-.288 1.891-1.863 3.22-3.517 2.967-1.653-.253-2.759-1.99-2.47-3.882.289-1.89 1.862-3.218 3.516-2.966 1.654.253 2.76 1.99 2.471 3.881" fill="#47a138"/></svg>