<svg xmlns="http://www.w3.org/2000/svg" viewBox="73.071 145.281 648.924 214.072"><path fill="#FFF" d="M73.071 145.281h17.789v84.497c0 22.978 12.786 41.878 37.432 41.878 24.644 0 37.43-18.9 37.43-41.878v-84.497h17.788v89.686c0 30.389-22.976 53.366-55.589 53.366-31.872 0-54.85-22.977-54.85-53.366v-89.686zM216.48 145.281v140.829h-16.677v-140.829zM241.511 166.221h16.676v23.348h15.38v14.638h-15.38v70.5h10.207l-.015 11.404h-26.868v-81.904h-13.344v-14.638h13.344zM452.382 226.999c0-16.677-9.636-24.09-21.125-24.09-13.897 0-24.273 8.709-24.273 24.831v58.37h-16.678v-59.111c0-16.677-9.636-24.09-21.125-24.09-13.897 0-24.274 8.709-24.274 24.831v46.986l10.191.001v11.383h-26.869v-96.542h16.678v11.489h.371c4.447-9.822 16.491-13.713 26.683-13.713 9.821 0 20.569 2.595 28.537 16.677 5.929-12.229 18.715-16.677 31.501-16.677 20.754 0 37.061 12.416 37.061 37.802v49.581h10.188l-.008 11.383h-26.856l-.002-59.111zM552.815 221.439c0-15.935-15.937-19.457-28.906-19.457-9.08 0-17.604 2.225-26.685 6.672l-7.227-13.898c14.639-6.115 26.127-7.413 34.837-7.413 23.162 0 44.657 9.821 44.657 32.799v54.584h10.19l-.001 11.384h-25.756v-10.378c-8.524 8.895-17.975 12.601-30.761 12.601-23.533 0-42.062-13.156-42.062-34.651 0-17.604 15.008-33.169 41.878-33.169 10.189 0 20.938 2.965 29.833 10.933l.003-10.007zm-26.683 13.713c-20.383 0-27.239 9.82-27.239 19.271 0 9.452 6.856 19.272 27.239 19.272 16.562 0 26.484-9.783 26.474-9.352 0 0 .012-8.156.012-9.929l.001-8.945s-9.895-10.317-26.487-10.317"/><path fill="#FFF" d="M590.988 166.221h16.676v23.348h15.38v14.638h-15.38v70.52h10.192v11.384h-26.868v-81.904h-13.342v-14.638h13.342zM717.732 267.395c-12.972 14.453-26.684 20.938-43.547 20.938-34.279 0-52.625-24.829-52.625-50.586 0-27.424 19.643-50.403 49.847-50.403 29.834 0 50.588 22.793 50.588 56.889h-82.645c2.597 16.492 15.938 28.536 34.651 28.536 11.86 0 22.423-5.56 30.946-15.566l12.785 10.192zm-14.638-36.875c-1.668-15.936-14.638-27.61-31.872-27.61-20.383 0-30.203 14.454-31.872 27.61h63.744z"/><path fill="#9A8B7D" d="M310.346 172.428c0 6.203-5.031 11.235-11.234 11.235-6.205 0-11.227-5.032-11.227-11.235 0-6.201 5.021-11.232 11.227-11.232 6.202 0 11.234 5.031 11.234 11.232m-2.658 102.299v-32.327l7.874-.045v-45.537c0-4.074-3.129-7.373-7.205-7.373h-18.144c-4.078 0-7.379 3.301-7.379 7.375l-.002 7.232v38.339l7.402.009v43.71l17.428-.019.026-11.364z"/><path fill="#FFF" d="M210.978 328.374c-.725-5.022-3.627-8.097-8.149-8.097-6.029 0-7.648 3.965-7.648 6.867 0 3.182 2.01 5.193 6.196 6.756l5.359 2.01c6.758 2.512 9.882 6.473 9.882 11.611 0 6.865-5.472 11.832-13.622 11.832-7.704 0-13.174-4.071-13.844-12.558h5.358c.447 4.634 2.793 7.87 8.765 7.87 4.634 0 7.983-2.957 7.983-6.699 0-3.293-2.736-5.415-6.586-6.923l-5.417-2.122c-6.308-2.455-9.433-6.141-9.433-11.611 0-7.311 6.085-11.722 13.062-11.722 7.034 0 12.507 4.188 13.12 12.784l-5.026.002zM260.96 315.59c14.401 0 22.497 11.387 22.497 21.885 0 10.493-8.096 21.879-22.497 21.879-14.402 0-22.496-11.386-22.496-21.879 0-10.498 8.094-21.885 22.496-21.885m0 38.743c8.652 0 16.803-6.812 16.803-16.858 0-10.051-8.151-16.861-16.803-16.861-8.653 0-16.803 6.812-16.803 16.861 0 10.046 8.15 16.858 16.803 16.858"/><path fill="#FFF" d="M307.264 316.259h21.939v5.026h-16.58v13.453h16.58v5.023h-16.58v18.925h-5.359zM360.54 321.285h-10.607v-5.026h26.571v5.026h-10.607v37.401h-5.357zM444.632 316.259h5.688l-13.061 42.427h-4.13l-10.216-33.605h-.111l-10.217 33.605h-4.131l-13.061-42.427h5.693l9.49 32.214h.112l9.655-32.214h5.027l9.657 32.325h.113zM495.511 348.807h-19.762l-3.852 9.879h-5.861l17.248-42.427h4.689l17.253 42.427h-5.862l-3.853-9.879zm-9.879-25.515l-8.04 20.821h16.077l-8.037-20.821zM532.657 340.6v18.086h-5.361v-42.427h12.226c8.151 0 14.24 4.688 14.24 12.843 0 7.59-5.978 12.278-12.899 12.672l16.524 16.912h-7.538l-17.192-18.086zm0-3.293c.724.057 1.51.057 4.688.057 8.204 0 11.054-3.575 11.054-8.209 0-4.969-3.404-8.207-8.987-8.207h-6.755v16.359zM579.229 316.259h21.944v5.026h-16.579v13.453h16.579v5.023h-16.579v13.901h16.579v5.024h-21.944z"/></svg>