<?xml version="1.0" encoding="UTF-8" standalone="no"?>
<svg
   xmlns:dc="http://purl.org/dc/elements/1.1/"
   xmlns:cc="http://creativecommons.org/ns#"
   xmlns:rdf="http://www.w3.org/1999/02/22-rdf-syntax-ns#"
   xmlns:svg="http://www.w3.org/2000/svg"
   xmlns="http://www.w3.org/2000/svg"
   viewBox="0 0 716.77332 344.09332"
   height="344.09332"
   width="716.77332"
   xml:space="preserve"
   id="svg2"
   version="1.1"><metadata
     id="metadata8"><rdf:RDF><cc:Work
         rdf:about=""><dc:format>image/svg+xml</dc:format><dc:type
           rdf:resource="http://purl.org/dc/dcmitype/StillImage" /></cc:Work></rdf:RDF></metadata><defs
     id="defs6" /><g
     transform="matrix(1.3333333,0,0,-1.3333333,0,344.09333)"
     id="g10"><g
       transform="scale(0.1)"
       id="g12"><path
         id="path14"
         style="fill:#ffffff;fill-opacity:1;fill-rule:nonzero;stroke:none"
         d="m 0,2580.71 h 147.367 v -699.98 c 0,-190.36 105.918,-346.92 310.09,-346.92 204.156,0 310.074,156.56 310.074,346.92 v 699.98 h 147.356 v -742.97 c 0,-251.74 -190.34,-442.08 -460.5,-442.08 C 190.352,1395.66 0,1586 0,1837.74 v 742.97" /><path
         id="path16"
         style="fill:#ffffff;fill-opacity:1;fill-rule:nonzero;stroke:none"
         d="M 1188.02,2580.71 V 1414.06 h -138.17 v 1166.65 h 138.17" /><path
         id="path18"
         style="fill:#ffffff;fill-opacity:1;fill-rule:nonzero;stroke:none"
         d="m 1395.37,2407.25 h 138.14 v -193.42 h 127.42 v -121.26 h -127.42 v -584.04 h 84.56 l -0.11,-94.47 h -222.59 v 678.51 h -110.54 v 121.26 h 110.54 v 193.42" /><path
         id="path20"
         style="fill:#ffffff;fill-opacity:1;fill-rule:nonzero;stroke:none"
         d="m 3142.24,1903.75 c 0,138.15 -79.82,199.56 -175,199.56 -115.14,0 -201.09,-72.14 -201.09,-205.7 V 1414.07 H 2628 v 489.68 c 0,138.15 -79.81,199.56 -175.01,199.56 -115.13,0 -201.08,-72.14 -201.08,-205.7 v -389.24 h 84.42 v -94.3 h -222.58 v 799.77 h 138.16 v -95.18 h 3.07 c 36.84,81.36 136.62,113.6 221.05,113.6 81.36,0 170.39,-21.49 236.4,-138.15 49.11,101.3 155.03,138.15 260.96,138.15 171.93,0 307.01,-102.86 307.01,-313.16 v -410.73 h 84.39 l -0.06,-94.3 h -222.49 v 489.68" /><path
         id="path22"
         style="fill:#ffffff;fill-opacity:1;fill-rule:nonzero;stroke:none"
         d="m 3753.2,1836.21 c -168.85,0 -225.65,-81.35 -225.65,-159.65 0,-78.29 56.8,-159.64 225.65,-159.64 137.2,0 219.4,81.04 219.3,77.47 0,0 0.1,67.56 0.1,82.25 0,14.57 0.01,74.11 0.01,74.11 0,0 -81.96,85.46 -219.41,85.46 m 221.04,113.6 c 0,132.01 -131.99,161.18 -239.45,161.18 -75.22,0 -145.84,-18.44 -221.05,-55.28 l -59.86,115.14 c 121.25,50.67 216.43,61.41 288.58,61.41 191.89,0 369.95,-81.35 369.95,-271.7 v -452.18 h 84.43 l -0.02,-94.31 h -213.36 v 85.97 c -70.62,-73.69 -148.9,-104.39 -254.81,-104.39 -194.96,0 -348.46,108.99 -348.46,287.06 0,145.83 124.32,274.77 346.93,274.77 84.41,0 173.46,-24.56 247.12,-90.58 v 82.91" /><path
         id="path24"
         style="fill:#ffffff;fill-opacity:1;fill-rule:nonzero;stroke:none"
         d="m 4290.48,2407.25 h 138.14 v -193.42 h 127.41 v -121.26 h -127.41 v -584.19 h 84.44 v -94.32 h -222.58 v 678.51 h -110.53 v 121.26 h 110.53 v 193.42" /><path
         id="path26"
         style="fill:#ffffff;fill-opacity:1;fill-rule:nonzero;stroke:none"
         d="m 5219.17,1874.59 c -13.82,132.01 -121.25,228.72 -264.04,228.72 -168.84,0 -250.2,-119.74 -264.03,-228.72 z m 121.27,-305.48 c -107.46,-119.73 -221.05,-173.45 -360.74,-173.45 -283.98,0 -435.96,205.69 -435.96,419.05 0,227.2 162.72,417.55 412.94,417.55 247.14,0 419.07,-188.83 419.07,-471.28 H 4691.1 c 21.51,-136.61 132.02,-236.39 287.07,-236.39 98.24,0 185.74,46.07 256.36,128.95 l 105.91,-84.43" /><path
         id="path28"
         style="fill:#ffffff;fill-opacity:1;fill-rule:nonzero;stroke:none"
         d="m 1943.59,1776.16 65.23,0.38 v 377.23 c 0,33.75 -25.93,61.07 -59.69,61.07 h -150.3 c -33.78,0 -61.13,-27.34 -61.13,-61.09 l -0.02,-59.91 v -317.6 l 61.32,-0.08 v -362.09 l 144.37,0.15 z m 22.01,579.67 c 0,-51.39 -41.67,-93.08 -93.06,-93.08 -51.4,0 -93,41.69 -93,93.08 0,51.37 41.6,93.05 93,93.05 51.39,0 93.06,-41.68 93.06,-93.05" /><path
         id="path30"
         style="fill:#ffffff;fill-opacity:1;fill-rule:nonzero;stroke:none"
         d="m 1142.43,1063.95 c -6,41.62 -30.05,67.08 -67.51,67.08 -49.95,0 -63.36,-32.85 -63.36,-56.89 0,-26.36 16.66,-43.04 51.33,-55.98 l 44.4,-16.64 c 55.98,-20.821 81.85,-53.622 81.85,-96.188 0,-56.871 -45.33,-98.012 -112.83,-98.012 -63.83,0 -109.15,33.711 -114.697,104.012 h 44.397 c 3.7,-38.371 23.13,-65.191 72.6,-65.191 38.4,0 66.14,24.488 66.14,55.488 0,27.281 -22.67,44.871 -54.56,57.351 l -44.88,17.579 c -52.247,20.332 -78.15,50.861 -78.15,96.201 0,60.55 50.41,97.09 108.21,97.09 58.28,0 103.61,-34.69 108.69,-105.9 h -41.63" /><path
         id="path32"
         style="fill:#ffffff;fill-opacity:1;fill-rule:nonzero;stroke:none"
         d="m 1556.49,848.898 c 71.67,0 139.2,56.434 139.2,139.672 0,83.25 -67.53,139.69 -139.2,139.69 -71.68,0 -139.2,-56.44 -139.2,-139.69 0,-83.238 67.52,-139.672 139.2,-139.672 m 0,320.952 c 119.29,0 186.36,-94.33 186.36,-181.28 0,-86.941 -67.07,-181.25 -186.36,-181.25 -119.31,0 -186.36,94.309 -186.36,181.25 0,86.95 67.05,181.28 186.36,181.28" /><path
         id="path34"
         style="fill:#ffffff;fill-opacity:1;fill-rule:nonzero;stroke:none"
         d="m 1940.07,1164.31 h 181.75 v -41.64 h -137.35 v -111.45 h 137.35 V 969.629 H 1984.47 V 812.852 h -44.4 v 351.458" /><path
         id="path36"
         style="fill:#ffffff;fill-opacity:1;fill-rule:nonzero;stroke:none"
         d="m 2381.42,1122.67 h -87.87 v 41.64 h 220.12 v -41.64 h -87.86 V 812.852 h -44.39 v 309.818" /><path
         id="path38"
         style="fill:#ffffff;fill-opacity:1;fill-rule:nonzero;stroke:none"
         d="m 3078.04,1164.31 h 47.13 L 3016.98,812.852 h -34.23 l -84.63,278.378 h -0.92 l -84.63,-278.378 h -34.22 l -108.21,351.458 h 47.17 l 78.62,-266.861 h 0.92 l 79.98,266.861 h 41.66 l 79.99,-267.779 h 0.93 l 78.63,267.779" /><path
         id="path40"
         style="fill:#ffffff;fill-opacity:1;fill-rule:nonzero;stroke:none"
         d="m 3417.69,1106.05 -66.6,-172.48 h 133.19 z m 81.83,-211.37 h -163.69 l -31.91,-81.828 h -48.56 l 142.89,351.458 h 38.84 l 142.93,-351.458 h -48.57 l -31.93,81.828" /><path
         id="path42"
         style="fill:#ffffff;fill-opacity:1;fill-rule:nonzero;stroke:none"
         d="m 3807.26,989.949 c 6,-0.457 12.51,-0.457 38.85,-0.457 67.96,0 91.55,29.618 91.55,67.998 0,41.17 -28.19,67.99 -74.44,67.99 h -55.96 z m 0,-27.269 V 812.852 h -44.41 v 351.458 h 101.27 c 67.54,0 117.96,-38.83 117.96,-106.38 0,-62.879 -49.51,-101.731 -106.86,-104.969 l 136.9,-140.109 h -62.44 L 3807.26,962.68" /><path
         id="path44"
         style="fill:#ffffff;fill-opacity:1;fill-rule:nonzero;stroke:none"
         d="m 4193.06,1164.31 h 181.79 v -41.64 H 4237.5 v -111.45 h 137.35 V 969.629 H 4237.5 V 854.461 h 137.35 v -41.609 h -181.79 v 351.458" /><path
         id="path46"
         style="fill:#ffffff;fill-opacity:1;fill-rule:nonzero;stroke:none"
         d="m 3188.02,371.801 c -2.25,11.488 -4.18,25.16 1.74,28.508 7.73,4.382 14.9,5.66 22.17,5.652 13.02,-0.012 17.41,-6.402 16.68,-19.813 -2.62,-48.257 -5.98,-96.546 -7.39,-144.757 -0.59,-20.399 2.52,-37.981 4.8,-58.172 1.24,-10.977 -0.92,-14.989 -11.94,-16.43 -20.18,-2.648 -29.37,6.32 -28.65,26.27 1.85,50.863 3.32,98.961 4.59,149.8 0.23,9.2 -1.22,18.332 -2,28.942" /><path
         id="path48"
         style="fill:#ffffff;fill-opacity:1;fill-rule:nonzero;stroke:none"
         d="m 3161.58,364.5 c -24.51,-4.5 -40.45,-9.148 -64.41,-13.77 -2.89,-0.55 -14.95,-3.07 -14.95,-3.07 0.08,-40.43 -0.83,-84.512 0.05,-124.871 0.12,-5.457 2.41,-10.797 4.2,-16 0.81,-2.328 8.75,-10.75 4.66,-21.23 -4.66,-11.911 -15.52,-16.957 -28.68,-18.2 -8.23,-0.769 -14.1,1.981 -14.59,10.403 -1.22,21.047 -2.34,42.148 -2.46,63.297 -0.2,32.793 0.45,65.632 0.77,99.453 -13.11,-3.02 -25.17,-5.891 -37.26,-8.563 -15.9,-3.519 -29.42,4.352 -33.25,19.153 -2.32,8.957 3.22,16.296 12.48,16.589 19.07,0.61 38.2,2.231 57.14,3.418 1.06,15.192 0.2,122.18 11.89,172.59 8.64,37.262 49.56,45.641 80.72,34.59 9.48,-3.367 33.41,-19.348 47.58,-47.609 8.74,-17.45 -9.67,-30.77 -17.47,-22.739 -11.85,12.2 -31.71,33.118 -50.45,39.52 -9.25,3.16 -26.73,0.211 -31.33,-46.012 -4.44,-44.57 -3.58,-119.129 -3.21,-123.629 21.49,3.442 42.65,6.578 63.71,10.18 15.32,2.621 32.61,-20.238 14.86,-23.5" /><path
         id="path50"
         style="fill:#ffffff;fill-opacity:1;fill-rule:nonzero;stroke:none"
         d="m 1756.02,499.441 c -32.38,-4.449 -56.05,-10.089 -56.05,-10.089 0,0 -0.33,-93.141 -1.92,-137.071 42.24,10.399 102.06,43.629 136.9,76.41 11.12,10.457 22.39,21.891 29.77,35.391 10.76,19.707 0.37,40.16 -35.98,40.16 0,0 -40.33,-0.351 -72.72,-4.801 z M 1664.9,304.832 c -7.06,-1.742 -20.7,-6.723 -31.55,-4.25 -12.08,2.758 -21.36,22.977 -4.45,30.477 10.98,4.871 22.89,6.98 35.21,10.531 -1.24,43.551 -2.44,93.449 -3.66,136.422 -13.45,-2.032 -25.52,-5.793 -37.36,-5.223 -41.19,1.981 -31.5,30.441 -19.83,33.402 18.3,4.629 29.5,5.301 47.57,8.508 2.02,0.352 5.14,3.582 5.36,5.59 1.07,9.52 6.96,13.52 14.83,15.301 9.45,2.14 20.51,5.84 26.5,-3.551 6,-9.418 7.27,-8.359 15.93,-7.508 32.26,3.129 70.86,7.879 103.04,8.949 22.81,0.75 44.88,-0.898 65.18,-12.64 21.5,-12.418 28.15,-38.328 16.19,-62.699 -11.65,-23.731 -30.4,-41.34 -50.1,-57.7 -42.61,-35.359 -87.33,-59.23 -138.05,-77.062 -9.28,-3.27 -11.68,-7.188 -11.02,-17.039 2.02,-29.942 -0.12,-103.52 1.09,-133.57 0.02,-0.661 0.08,-1.321 0.16,-1.969 1.82,-16.289 0.07,-20.301 -9.9,-22.672 -11.87,-2.809 -26.59,4.832 -28.88,15.422 -0.87,4.07 -1,8.488 -0.75,12.75 1.27,21.308 2.88,42.609 4.17,63.91 0.41,6.93 0.22,56.07 0.32,64.621" /><path
         id="path52"
         style="fill:#ffffff;fill-opacity:1;fill-rule:nonzero;stroke:none"
         d="m 2286.39,330.91 c 15.85,13.789 31.79,27.75 50.45,43.949 26.71,23.192 57.1,40.243 91.02,48.34 12.14,2.91 25.51,2.93 37.48,0.68 18,-3.387 26.54,-17.32 26.8,-36.688 0.42,-30.32 -12.55,-56.16 -30.14,-79.812 -35.08,-47.199 -79.67,-75.668 -128.36,-105.399 -7.72,-4.71 -17.77,-5.91 -26.74,-6.57 -3.69,-0.262 -9.1,4.442 -10.54,8.352 -1.26,3.437 0.78,9.886 3.43,13.297 3.34,4.293 8.56,7.3 13.35,10.089 51.34,29.872 95.97,61.114 130.88,111.184 6.03,8.66 10.45,19.09 13.43,29.25 5.41,18.508 -5.53,30.648 -23.31,25.629 -11.99,-3.402 -24.17,-8.242 -34.94,-14.949 -42.66,-26.59 -79.65,-53.242 -109.81,-95.032 -5.76,-7.988 -8.6,-16.308 -8.98,-26.121 -2.73,-71.5 -5.72,-142.988 -0.8,-213.9684 0.59,-8.539 0.72,-17.1992 0.45,-25.832 -0.25,-8.27735 -2.94,-14.96876 -12.4,-16.718756 -10.68,-1.988284 -19.3,1.050786 -21.71,9.902356 -1.84,6.7695 -2.71,14.168 -2.55,21.3476 1.2,52.8399 2.49,105.6912 4.3,158.5582 2.23,65.172 4.88,130.352 7.61,195.543 0.62,14.938 7.66,24.008 20.14,27.911 15.32,4.777 22.57,-2.071 20.09,-18.282 -3.58,-23.48 -6.66,-47.011 -9.15,-64.66" /><path
         id="path54"
         style="fill:#ffffff;fill-opacity:1;fill-rule:nonzero;stroke:none"
         d="m 2619.52,292.422 c 39.39,13.109 93.59,56 111.59,89.57 1.43,2.68 0.14,13.028 -9.61,7.547 -41.49,-23.297 -71.59,-58.129 -101.98,-97.117 m -50.84,-65.293 c 0.72,25.203 12.12,57.453 25.66,78.82 27.51,43.442 60.58,81.832 104.79,109.242 9.58,5.938 21.06,10.539 31.91,11.969 20.92,2.738 35.26,-12.359 35.12,-33.441 -0.15,-20.449 -8.64,-37.957 -22.18,-53.367 -34.37,-39.122 -76.94,-65.153 -125.53,-80.532 -8.12,-2.57 -11.02,-6.75 -12.54,-13.73 -7.45,-34.348 15.51,-56.391 51.59,-50.328 25.97,4.367 47.81,17.91 67.9,34.129 21.91,17.66 32.12,27.918 53.35,46.48 18,15.738 25.61,-4.851 16.99,-14.621 -35.16,-39.852 -58.76,-66.07 -104.32,-86.738 -23.75,-10.77 -46.73,-13.77 -72.09,-9.961 -33.83,5.078 -51.28,27.48 -50.65,62.078" /><path
         id="path56"
         style="fill:#ffffff;fill-opacity:1;fill-rule:nonzero;stroke:none"
         d="m 2191.99,348.941 c -11.73,-45.902 -75.29,-134.921 -115.8,-148.461 -32.11,-10.738 -46.04,-1.128 -39.59,40.391 3.53,22.758 13.71,40.699 25.95,60.731 6.45,10.546 12.14,2.617 21.3,17.48 24.76,40.199 75.94,85.688 104.17,73.43 11.2,-4.871 6.66,-33.063 3.97,-43.571 z m -233.53,40.598 c 9.74,5.481 11.04,-4.867 9.6,-7.547 -18,-33.57 -72.2,-76.461 -111.58,-89.57 30.38,38.988 60.49,73.82 101.98,97.117 z m 229.89,35.973 c -38.75,2.238 -104.68,-22.293 -168.9,-134 -1.52,-2.91 -36.36,-44.903 -57.09,-61.621 -20.09,-16.219 -41.93,-29.762 -67.9,-34.129 -36.08,-6.063 -59.05,15.98 -51.59,50.328 1.51,6.98 4.41,11.16 12.54,13.73 48.59,15.379 91.16,41.41 125.52,80.532 13.54,15.41 22.04,32.918 22.18,53.367 0.15,21.082 -14.2,36.179 -35.12,33.441 -10.84,-1.43 -22.32,-6.031 -31.91,-11.969 -44.2,-27.41 -77.28,-65.8 -104.79,-109.242 -13.53,-21.367 -25.55,-53.679 -25.65,-78.82 -0.13,-34.609 16.93,-55.09 50.76,-60.168 25.36,-3.813 49.71,1.41 73.46,12.18 29.38,13.328 48.48,30.859 71.26,52.55 -0.7,-7.062 -0.71,-12.449 -0.71,-15.609 0,-28.211 22.44,-47.461 49.51,-50.363 65.3,-7 126.77,69.922 152.48,118.75 15.77,29.961 26.78,67.761 26.27,98.09 -0.41,23.839 -16.57,41.57 -40.32,42.953" /><path
         id="path58"
         style="fill:#ffffff;fill-opacity:1;fill-rule:nonzero;stroke:none"
         d="m 3610.79,265.309 c -20.63,-35.84 -63.41,-61.727 -102.72,-83.2 -13.89,-7.578 -27.81,-15.097 -43.79,-14.648 -8.5,0.238 -14.5,4.73 -16.23,12.84 -1.71,8.031 1.49,15.308 8.98,20.031 4.31,2.707 9.09,4.777 13.83,6.59 12.69,4.828 25.83,8.508 38.16,14.187 26.05,12.032 49.11,29.039 68.18,50.672 5.04,5.731 5.63,22.989 -10.27,18.438 -25.93,-7.43 -51.72,-15.848 -77.74,-22.989 -21.39,-5.859 -42.97,-11.648 -64.68,-14.859 -26.23,-3.879 -41.9,17.059 -34.15,42.668 7.05,23.32 20.6,42.953 37.31,60.652 22.53,23.911 46.96,45.707 75.13,62.649 9.28,5.59 19.31,10.64 29.53,13.609 19.09,5.582 38.7,-5.508 43.36,-23.359 1.03,-3.942 1.44,-8.731 0.16,-12.598 -1.47,-4.461 -4.48,-10.543 -8.04,-11.812 -3.37,-1.2 -9.55,1.789 -12.34,4.902 -8.78,9.797 -19.05,8.789 -29.83,3.16 -28.34,-14.801 -52.07,-35.812 -73.63,-59.222 -9.5,-10.309 -18,-21.75 -25.61,-33.481 -6.22,-9.59 -0.79,-17.68 10.44,-15.629 14.48,2.649 28.9,6.379 43.1,10.672 28.8,8.707 57.37,18.41 86.2,26.988 6.6,1.969 14.04,1.93 20.84,1.289 26.06,-2.449 43.03,-25.429 23.81,-57.55" /><path
         id="path60"
         style="fill:#ffffff;fill-opacity:1;fill-rule:nonzero;stroke:none"
         d="m 3669.93,368.941 c -14.45,-4.23 -28.28,-8.492 -42.21,-12.269 -6.12,-1.68 -13.2,-4.524 -18.46,-2.973 -5.66,1.672 -11.83,6.91 -13.92,12.301 -2.71,6.969 4.45,11.602 10.67,13.77 10.22,3.589 62.88,18.75 63.94,20.859 3.04,6.07 3.9,29.051 5.63,40.48 2.04,13.571 4.06,27.172 6.73,40.68 3.08,15.551 11.24,22.742 24.39,22.5 11.87,-0.207 18.5,-8.019 16.3,-20.047 -3.86,-21.133 -8.1,-49.262 -12.15,-70.371 -0.24,-1.242 -0.2,-2.512 -0.39,-5.32 11.61,2.488 22.6,4.89 33.62,7.191 20.43,4.289 33.79,8.867 54.29,12.598 10.24,1.871 21.82,3.742 28.02,-6.258 3.16,-5.102 0.15,-22.41 -12.05,-26.531 -11.09,-3.75 -23.4,-0.59 -34.94,-2.5 -26.39,-4.379 -45.63,-9.879 -72.77,-15.082 -1.43,-37.321 -3.31,-72.887 -3.93,-108.379 -0.27,-16.18 1.78,-39.301 3.1,-55.371 0.79,-9.571 6.98,-12.59 9.19,-21.11 2.21,-8.527 -4.85,-23.488 -21.91,-26.367 -13.54,-2.281 -21.94,5.899 -22.18,22.707 -0.42,28.172 -0.33,63.41 -0.47,91.59 -0.15,28.801 -0.32,57.609 -0.5,87.902" /><path
         id="path62"
         style="fill:#ffffff;fill-opacity:1;fill-rule:nonzero;stroke:none"
         d="m 3302.45,346.391 c 35.71,58.359 105.16,78.589 125.09,64.808 7.43,-5.14 -0.57,-24.5 -9.97,-24.027 -35.45,1.769 -85.56,-42.203 -98.18,-79.492 -8.53,-25.239 -2.92,-100.719 -5.24,-127.532 -0.38,-4.308 -4.34,-10.168 -8.2,-12.449 -6.07,-3.578 -19.27,1.41 -22,8.301 -2.64,6.68 -4.05,14.371 -3.97,21.719 0.28,25.531 4.52,51.691 1.51,76.523 -3.93,32.399 -12.87,63.918 -20.6,95.508 -3.77,15.441 0.11,26.27 13.7,31 10.64,3.699 17.9,0.309 21.53,-8.719 3.64,-9.031 6.33,-45.64 6.33,-45.64" /><path
         id="path64"
         style="fill:#ffffff;fill-opacity:1;fill-rule:nonzero;stroke:none"
         d="m 2553.04,434.941 c -2.08,-43.293 -5.03,-71.101 -6.62,-119.972 -1.43,-43.848 -1.38,-87.637 -1.91,-131.469 -0.03,-2.621 0.66,-5.199 0.99,-7.809 1.56,-12.461 -3.75,-18.332 -16.43,-18.171 -16.26,0.21 -22.03,6.812 -21.46,22.742 3.31,91.41 6.79,161.718 9.31,253.097 0.78,28.512 1.67,53.211 -0.79,81.563 -2.35,26.957 38.83,23.379 40.43,9.43 0.44,-3.883 0.32,-7.922 0.06,-11.891 -1.6,-23.969 -1.51,-47.941 -3.58,-77.52" /><path
         id="path66"
         style="fill:#ffffff;fill-opacity:1;fill-rule:nonzero;stroke:none"
         d="m 3228.64,456.539 c -2.31,-15.129 -14.91,-25.75 -28.13,-23.73 -13.23,2.023 -22.08,15.921 -19.77,31.05 2.31,15.121 14.91,25.75 28.13,23.731 13.23,-2.02 22.08,-15.918 19.77,-31.051" /><path
         id="path68"
         style="fill:#ffffff;fill-opacity:1;fill-rule:nonzero;stroke:none"
         d="m 3791.7,190.641 c -2.31,-15.129 -14.91,-25.75 -28.14,-23.731 -13.22,2.02 -22.07,15.922 -19.76,31.051 2.31,15.121 14.9,25.75 28.13,23.73 13.23,-2.019 22.08,-15.921 19.77,-31.05" /></g></g></svg>